999
DXF created from QGIS
  0
SECTION
  2
HEADER
  9
$ACADVER
  1
AC1015
  9
$EXTMIN
 10
1620294.71457388112321496
 20
6898016.68825055286288261
 30
0.0
  9
$EXTMAX
 10
1620559.74951731250621378
 20
6898391.13362756837159395
 30
0.0
  9
$LTSCALE
 40
1.0
  9
$PDMODE
 70
    33
  9
$PDSIZE
 40
     1
  9
$PSLTSCALE
 70
     0
  9
$HANDSEED
  5
9999999
  9
$DWGCODEPAGE
  3
ANSI_1252
  0
ENDSEC
  0
SECTION
  2
TABLES
  0
TABLE
  2
LTYPE
  5
64
100
AcDbSymbolTable
 70
     5
  0
LTYPE
  5
65
100
AcDbSymbolTableRecord
100
AcDbLinetypeTableRecord
  2
ByLayer
 70
    64
  3
Defaultstyle
 72
    65
 73
     0
 40
0.0
  0
LTYPE
  5
66
100
AcDbSymbolTableRecord
100
AcDbLinetypeTableRecord
  2
ByBlock
 70
    64
  3
Defaultstyle
 72
    65
 73
     0
 40
0.0
  0
LTYPE
  5
67
100
AcDbSymbolTableRecord
100
AcDbLinetypeTableRecord
  2
CONTINUOUS
 70
    64
  3
Defaultstyle
 72
    65
 73
     0
 40
0.0
  0
LTYPE
  5
68
100
AcDbSymbolTableRecord
100
AcDbLinetypeTableRecord
  2
DASH
 70
    64
  3

 72
    65
 73
     2
 40
0.0026
 49
0.002
 74
     0
 49
-0.0006
 74
     0
  0
LTYPE
  5
69
100
AcDbSymbolTableRecord
100
AcDbLinetypeTableRecord
  2
DOT
 70
    64
  3

 72
    65
 73
     2
 40
0.0012
 49
0.0006
 74
     0
 49
-0.0006
 74
     0
  0
LTYPE
  5
6a
100
AcDbSymbolTableRecord
100
AcDbLinetypeTableRecord
  2
DASHDOT
 70
    64
  3

 72
    65
 73
     4
 40
0.0038
 49
0.002
 74
     0
 49
-0.0006
 74
     0
 49
0.0006
 74
     0
 49
-0.0006
 74
     0
  0
LTYPE
  5
6b
100
AcDbSymbolTableRecord
100
AcDbLinetypeTableRecord
  2
DASHDOTDOT
 70
    64
  3

 72
    65
 73
     6
 40
0.005
 49
0.002
 74
     0
 49
-0.0006
 74
     0
 49
0.0006
 74
     0
 49
-0.0006
 74
     0
 49
0.0006
 74
     0
 49
-0.0006
 74
     0
  0
ENDTAB
  0
TABLE
  2
BLOCK_RECORD
  5
6c
100
AcDbSymbolTable
 70
     0
  0
BLOCK_RECORD
  5
6d
100
AcDbSymbolTableRecord
100
AcDbBlockTableRecord
  2
*Model_Space
  0
BLOCK_RECORD
  5
6e
100
AcDbSymbolTableRecord
100
AcDbBlockTableRecord
  2
*Paper_Space
  0
BLOCK_RECORD
  5
6f
100
AcDbSymbolTableRecord
100
AcDbBlockTableRecord
  2
*Paper_Space0
  0
BLOCK_RECORD
  5
70
100
AcDbSymbolTableRecord
100
AcDbBlockTableRecord
  2
symbolLayer0
  0
BLOCK_RECORD
  5
71
100
AcDbSymbolTableRecord
100
AcDbBlockTableRecord
  2
symbolLayer1
  0
BLOCK_RECORD
  5
72
100
AcDbSymbolTableRecord
100
AcDbBlockTableRecord
  2
symbolLayer2
  0
BLOCK_RECORD
  5
73
100
AcDbSymbolTableRecord
100
AcDbBlockTableRecord
  2
symbolLayer3
  0
BLOCK_RECORD
  5
74
100
AcDbSymbolTableRecord
100
AcDbBlockTableRecord
  2
symbolLayer4
  0
BLOCK_RECORD
  5
75
100
AcDbSymbolTableRecord
100
AcDbBlockTableRecord
  2
symbolLayer5
  0
BLOCK_RECORD
  5
76
100
AcDbSymbolTableRecord
100
AcDbBlockTableRecord
  2
symbolLayer6
  0
BLOCK_RECORD
  5
77
100
AcDbSymbolTableRecord
100
AcDbBlockTableRecord
  2
symbolLayer7
  0
BLOCK_RECORD
  5
78
100
AcDbSymbolTableRecord
100
AcDbBlockTableRecord
  2
symbolLayer8
  0
BLOCK_RECORD
  5
79
100
AcDbSymbolTableRecord
100
AcDbBlockTableRecord
  2
symbolLayer9
  0
BLOCK_RECORD
  5
7a
100
AcDbSymbolTableRecord
100
AcDbBlockTableRecord
  2
symbolLayer10
  0
BLOCK_RECORD
  5
7b
100
AcDbSymbolTableRecord
100
AcDbBlockTableRecord
  2
symbolLayer11
  0
BLOCK_RECORD
  5
7c
100
AcDbSymbolTableRecord
100
AcDbBlockTableRecord
  2
symbolLayer12
  0
BLOCK_RECORD
  5
7d
100
AcDbSymbolTableRecord
100
AcDbBlockTableRecord
  2
symbolLayer13
  0
BLOCK_RECORD
  5
7e
100
AcDbSymbolTableRecord
100
AcDbBlockTableRecord
  2
symbolLayer14
  0
BLOCK_RECORD
  5
7f
100
AcDbSymbolTableRecord
100
AcDbBlockTableRecord
  2
symbolLayer15
  0
BLOCK_RECORD
  5
80
100
AcDbSymbolTableRecord
100
AcDbBlockTableRecord
  2
symbolLayer16
  0
BLOCK_RECORD
  5
81
100
AcDbSymbolTableRecord
100
AcDbBlockTableRecord
  2
symbolLayer17
  0
BLOCK_RECORD
  5
82
100
AcDbSymbolTableRecord
100
AcDbBlockTableRecord
  2
symbolLayer18
  0
BLOCK_RECORD
  5
83
100
AcDbSymbolTableRecord
100
AcDbBlockTableRecord
  2
symbolLayer19
  0
BLOCK_RECORD
  5
84
100
AcDbSymbolTableRecord
100
AcDbBlockTableRecord
  2
symbolLayer20
  0
BLOCK_RECORD
  5
85
100
AcDbSymbolTableRecord
100
AcDbBlockTableRecord
  2
symbolLayer21
  0
BLOCK_RECORD
  5
86
100
AcDbSymbolTableRecord
100
AcDbBlockTableRecord
  2
symbolLayer22
  0
BLOCK_RECORD
  5
87
100
AcDbSymbolTableRecord
100
AcDbBlockTableRecord
  2
symbolLayer23
  0
ENDTAB
  0
TABLE
  2
APPID
  5
88
100
AcDbSymbolTable
 70
     1
  0
APPID
  5
89
100
AcDbSymbolTableRecord
100
AcDbRegAppTableRecord
  2
ACAD
 70
     0
  0
ENDTAB
  0
TABLE
  2
VIEW
  5
8a
100
AcDbSymbolTable
 70
     0
  0
ENDTAB
  0
TABLE
  2
UCS
  5
8b
100
AcDbSymbolTable
 70
     0
  0
ENDTAB
  0
TABLE
  2
VPORT
  5
8c
100
AcDbSymbolTable
  0
VPORT
  5
8d
100
AcDbSymbolTableRecord
100
AcDbViewportTableRecord
  2
*ACTIVE
 70
     0
 10
0.0
 20
0.0
 11
1.0
 21
1.0
 12
0.0
 22
0.0
 13
0.0
 23
0.0
 14
1.0
 24
1.0
 15
1.0
 25
1.0
 16
0.0
 26
0.0
 36
1.0
 17
1620427.23204559693112969
 27
6898203.910939060151577
 40
374.44537701550871134
 41
0.70780669144275699
 42
50.0
 43
0.0
 44
0.0
 50
0.0
 51
0.0
 71
     0
 72
   100
 73
     1
 74
     1
 75
     0
 76
     0
 77
     0
 78
     0
281
     0
 65
     1
110
0.0
120
0.0
130
0.0
111
1.0
121
0.0
131
0.0
112
0.0
122
1.0
132
0.0
 79
     0
146
0.0
 70
     0
  0
ENDTAB
  0
TABLE
  2
DIMSTYLE
  5
8e
100
AcDbSymbolTable
100
AcDbDimStyleTable
 70
     0
  0
ENDTAB
  0
TABLE
  2
LAYER
  5
8f
100
AcDbSymbolTable
 70
    10
  0
LAYER
  5
90
100
AcDbSymbolTableRecord
100
AcDbLayerTableRecord
  2
0
 70
    64
 62
     1
  6
CONTINUOUS
390
f
  0
LAYER
  5
91
100
AcDbSymbolTableRecord
100
AcDbLayerTableRecord
  2
heho_grundstück
 70
    64
 62
     1
  6
CONTINUOUS
390
f
  0
LAYER
  5
92
100
AcDbSymbolTableRecord
100
AcDbLayerTableRecord
  2
heho_grubber
 70
    64
 62
     1
  6
CONTINUOUS
390
f
  0
LAYER
  5
93
100
AcDbSymbolTableRecord
100
AcDbLayerTableRecord
  2
heho_waldgarten
 70
    64
 62
     1
  6
CONTINUOUS
390
f
  0
LAYER
  5
94
100
AcDbSymbolTableRecord
100
AcDbLayerTableRecord
  2
heho_teich
 70
    64
 62
     1
  6
CONTINUOUS
390
f
  0
LAYER
  5
95
100
AcDbSymbolTableRecord
100
AcDbLayerTableRecord
  2
heho_versigelte_fläche
 70
    64
 62
     1
  6
CONTINUOUS
390
f
  0
LAYER
  5
96
100
AcDbSymbolTableRecord
100
AcDbLayerTableRecord
  2
heho_geländehöhe
 70
    64
 62
     1
  6
CONTINUOUS
390
f
  0
LAYER
  5
97
100
AcDbSymbolTableRecord
100
AcDbLayerTableRecord
  2
heho_garten
 70
    64
 62
     1
  6
CONTINUOUS
390
f
  0
LAYER
  5
98
100
AcDbSymbolTableRecord
100
AcDbLayerTableRecord
  2
heho_gebäude
 70
    64
 62
     1
  6
CONTINUOUS
390
f
  0
LAYER
  5
99
100
AcDbSymbolTableRecord
100
AcDbLayerTableRecord
  2
heho_wege
 70
    64
 62
     1
  6
CONTINUOUS
390
f
  0
ENDTAB
  0
TABLE
  2
STYLE
  5
9a
100
AcDbSymbolTable
 70
     1
  0
STYLE
  5
9b
100
AcDbSymbolTableRecord
100
AcDbTextStyleTableRecord
  2
STANDARD
 70
    64
 40
0.0
 41
1.0
 50
0.0
 71
     0
 42
5.0
  3
romans.shx
  4

  0
ENDTAB
  0
ENDSEC
  0
SECTION
  2
BLOCKS
  0
BLOCK
  5
9c
330
6d
100
AcDbEntity
  8
0
100
AcDbBlockBegin
  2
*Model_Space
 70
     0
 10
0.0
 20
0.0
 30
0.0
  3
*Model_Space
  1

  0
ENDBLK
  5
9d
100
AcDbEntity
  8
0
100
AcDbBlockEnd
  0
BLOCK
  5
9e
330
6e
100
AcDbEntity
  8
0
100
AcDbBlockBegin
  2
*Paper_Space
 70
     0
 10
0.0
 20
0.0
 30
0.0
  3
*Paper_Space
  1

  0
ENDBLK
  5
9f
100
AcDbEntity
  8
0
100
AcDbBlockEnd
  0
BLOCK
  5
a0
330
6f
100
AcDbEntity
  8
0
100
AcDbBlockBegin
  2
*Paper_Space0
 70
     0
 10
0.0
 20
0.0
 30
0.0
  3
*Paper_Space0
  1

  0
ENDBLK
  5
a1
100
AcDbEntity
  8
0
100
AcDbBlockEnd
  0
BLOCK
  5
a2
330
70
100
AcDbEntity
  8
0
100
AcDbBlockBegin
  2
symbolLayer0
 70
     0
 10
0.0
 20
0.0
 30
0.0
  3
symbolLayer0
  1

  0
HATCH
  5
a3
330
70
100
AcDbEntity
  8
0
420
536683
100
AcDbHatch
 10
0.0
 20
0.0
 30
0.0
210
0.0
220
0.0
230
1.0
  2
SOLID
 70
     1
 71
     0
 91
     1
 92
     3
 72
     1
 73
     1
 93
     2
 10
-0.0035
 20
0.0
 42
1.0
 10
0.0035
 20
0.0
 42
1.0
 97
     0
 75
     0
 76
     1
 98
     0
  0
LWPOLYLINE
  5
a4
330
70
  8
0
100
AcDbEntity
100
AcDbPolyline
  6
CONTINUOUS
420
     0
 90
     2
 70
     1
 43
0.0
 10
-0.0035
 20
0.0
 42
1.0
 10
0.0035
 20
0.0
 42
1.0
  0
ENDBLK
  5
a5
100
AcDbEntity
  8
0
100
AcDbBlockEnd
  0
BLOCK
  5
a6
330
71
100
AcDbEntity
  8
0
100
AcDbBlockBegin
  2
symbolLayer1
 70
     0
 10
0.0
 20
0.0
 30
0.0
  3
symbolLayer1
  1

  0
HATCH
  5
a7
330
71
100
AcDbEntity
  8
0
420
677022
100
AcDbHatch
 10
0.0
 20
0.0
 30
0.0
210
0.0
220
0.0
230
1.0
  2
SOLID
 70
     1
 71
     0
 91
     1
 92
     3
 72
     1
 73
     1
 93
     2
 10
-0.0035
 20
0.0
 42
1.0
 10
0.0035
 20
0.0
 42
1.0
 97
     0
 75
     0
 76
     1
 98
     0
  0
LWPOLYLINE
  5
a8
330
71
  8
0
100
AcDbEntity
100
AcDbPolyline
  6
CONTINUOUS
420
     0
 90
     2
 70
     1
 43
0.0
 10
-0.0035
 20
0.0
 42
1.0
 10
0.0035
 20
0.0
 42
1.0
  0
ENDBLK
  5
a9
100
AcDbEntity
  8
0
100
AcDbBlockEnd
  0
BLOCK
  5
aa
330
72
100
AcDbEntity
  8
0
100
AcDbBlockBegin
  2
symbolLayer2
 70
     0
 10
0.0
 20
0.0
 30
0.0
  3
symbolLayer2
  1

  0
HATCH
  5
ab
330
72
100
AcDbEntity
  8
0
420
2192054
100
AcDbHatch
 10
0.0
 20
0.0
 30
0.0
210
0.0
220
0.0
230
1.0
  2
SOLID
 70
     1
 71
     0
 91
     1
 92
     3
 72
     1
 73
     1
 93
     2
 10
-0.0035
 20
0.0
 42
1.0
 10
0.0035
 20
0.0
 42
1.0
 97
     0
 75
     0
 76
     1
 98
     0
  0
LWPOLYLINE
  5
ac
330
72
  8
0
100
AcDbEntity
100
AcDbPolyline
  6
CONTINUOUS
420
     0
 90
     2
 70
     1
 43
0.0
 10
-0.0035
 20
0.0
 42
1.0
 10
0.0035
 20
0.0
 42
1.0
  0
ENDBLK
  5
ad
100
AcDbEntity
  8
0
100
AcDbBlockEnd
  0
BLOCK
  5
ae
330
73
100
AcDbEntity
  8
0
100
AcDbBlockBegin
  2
symbolLayer3
 70
     0
 10
0.0
 20
0.0
 30
0.0
  3
symbolLayer3
  1

  0
HATCH
  5
af
330
73
100
AcDbEntity
  8
0
420
4099780
100
AcDbHatch
 10
0.0
 20
0.0
 30
0.0
210
0.0
220
0.0
230
1.0
  2
SOLID
 70
     1
 71
     0
 91
     1
 92
     3
 72
     1
 73
     1
 93
     2
 10
-0.0035
 20
0.0
 42
1.0
 10
0.0035
 20
0.0
 42
1.0
 97
     0
 75
     0
 76
     1
 98
     0
  0
LWPOLYLINE
  5
b0
330
73
  8
0
100
AcDbEntity
100
AcDbPolyline
  6
CONTINUOUS
420
     0
 90
     2
 70
     1
 43
0.0
 10
-0.0035
 20
0.0
 42
1.0
 10
0.0035
 20
0.0
 42
1.0
  0
ENDBLK
  5
b1
100
AcDbEntity
  8
0
100
AcDbBlockEnd
  0
BLOCK
  5
b2
330
74
100
AcDbEntity
  8
0
100
AcDbBlockBegin
  2
symbolLayer4
 70
     0
 10
0.0
 20
0.0
 30
0.0
  3
symbolLayer4
  1

  0
HATCH
  5
b3
330
74
100
AcDbEntity
  8
0
420
6334162
100
AcDbHatch
 10
0.0
 20
0.0
 30
0.0
210
0.0
220
0.0
230
1.0
  2
SOLID
 70
     1
 71
     0
 91
     1
 92
     3
 72
     1
 73
     1
 93
     2
 10
-0.0035
 20
0.0
 42
1.0
 10
0.0035
 20
0.0
 42
1.0
 97
     0
 75
     0
 76
     1
 98
     0
  0
LWPOLYLINE
  5
b4
330
74
  8
0
100
AcDbEntity
100
AcDbPolyline
  6
CONTINUOUS
420
     0
 90
     2
 70
     1
 43
0.0
 10
-0.0035
 20
0.0
 42
1.0
 10
0.0035
 20
0.0
 42
1.0
  0
ENDBLK
  5
b5
100
AcDbEntity
  8
0
100
AcDbBlockEnd
  0
BLOCK
  5
b6
330
75
100
AcDbEntity
  8
0
100
AcDbBlockBegin
  2
symbolLayer5
 70
     0
 10
0.0
 20
0.0
 30
0.0
  3
symbolLayer5
  1

  0
HATCH
  5
b7
330
75
100
AcDbEntity
  8
0
420
9027549
100
AcDbHatch
 10
0.0
 20
0.0
 30
0.0
210
0.0
220
0.0
230
1.0
  2
SOLID
 70
     1
 71
     0
 91
     1
 92
     3
 72
     1
 73
     1
 93
     2
 10
-0.0035
 20
0.0
 42
1.0
 10
0.0035
 20
0.0
 42
1.0
 97
     0
 75
     0
 76
     1
 98
     0
  0
LWPOLYLINE
  5
b8
330
75
  8
0
100
AcDbEntity
100
AcDbPolyline
  6
CONTINUOUS
420
     0
 90
     2
 70
     1
 43
0.0
 10
-0.0035
 20
0.0
 42
1.0
 10
0.0035
 20
0.0
 42
1.0
  0
ENDBLK
  5
b9
100
AcDbEntity
  8
0
100
AcDbBlockEnd
  0
BLOCK
  5
ba
330
76
100
AcDbEntity
  8
0
100
AcDbBlockBegin
  2
symbolLayer6
 70
     0
 10
0.0
 20
0.0
 30
0.0
  3
symbolLayer6
  1

  0
HATCH
  5
bb
330
76
100
AcDbEntity
  8
0
420
11588328
100
AcDbHatch
 10
0.0
 20
0.0
 30
0.0
210
0.0
220
0.0
230
1.0
  2
SOLID
 70
     1
 71
     0
 91
     1
 92
     3
 72
     1
 73
     1
 93
     2
 10
-0.0035
 20
0.0
 42
1.0
 10
0.0035
 20
0.0
 42
1.0
 97
     0
 75
     0
 76
     1
 98
     0
  0
LWPOLYLINE
  5
bc
330
76
  8
0
100
AcDbEntity
100
AcDbPolyline
  6
CONTINUOUS
420
     0
 90
     2
 70
     1
 43
0.0
 10
-0.0035
 20
0.0
 42
1.0
 10
0.0035
 20
0.0
 42
1.0
  0
ENDBLK
  5
bd
100
AcDbEntity
  8
0
100
AcDbBlockEnd
  0
BLOCK
  5
be
330
77
100
AcDbEntity
  8
0
100
AcDbBlockBegin
  2
symbolLayer7
 70
     0
 10
0.0
 20
0.0
 30
0.0
  3
symbolLayer7
  1

  0
HATCH
  5
bf
330
77
100
AcDbEntity
  8
0
420
13492466
100
AcDbHatch
 10
0.0
 20
0.0
 30
0.0
210
0.0
220
0.0
230
1.0
  2
SOLID
 70
     1
 71
     0
 91
     1
 92
     3
 72
     1
 73
     1
 93
     2
 10
-0.0035
 20
0.0
 42
1.0
 10
0.0035
 20
0.0
 42
1.0
 97
     0
 75
     0
 76
     1
 98
     0
  0
LWPOLYLINE
  5
c0
330
77
  8
0
100
AcDbEntity
100
AcDbPolyline
  6
CONTINUOUS
420
     0
 90
     2
 70
     1
 43
0.0
 10
-0.0035
 20
0.0
 42
1.0
 10
0.0035
 20
0.0
 42
1.0
  0
ENDBLK
  5
c1
100
AcDbEntity
  8
0
100
AcDbBlockEnd
  0
BLOCK
  5
c2
330
78
100
AcDbEntity
  8
0
100
AcDbBlockBegin
  2
symbolLayer8
 70
     0
 10
0.0
 20
0.0
 30
0.0
  3
symbolLayer8
  1

  0
HATCH
  5
c3
330
78
100
AcDbEntity
  8
0
420
14872313
100
AcDbHatch
 10
0.0
 20
0.0
 30
0.0
210
0.0
220
0.0
230
1.0
  2
SOLID
 70
     1
 71
     0
 91
     1
 92
     3
 72
     1
 73
     1
 93
     2
 10
-0.0035
 20
0.0
 42
1.0
 10
0.0035
 20
0.0
 42
1.0
 97
     0
 75
     0
 76
     1
 98
     0
  0
LWPOLYLINE
  5
c4
330
78
  8
0
100
AcDbEntity
100
AcDbPolyline
  6
CONTINUOUS
420
     0
 90
     2
 70
     1
 43
0.0
 10
-0.0035
 20
0.0
 42
1.0
 10
0.0035
 20
0.0
 42
1.0
  0
ENDBLK
  5
c5
100
AcDbEntity
  8
0
100
AcDbBlockEnd
  0
BLOCK
  5
c6
330
79
100
AcDbEntity
  8
0
100
AcDbBlockBegin
  2
symbolLayer9
 70
     0
 10
0.0
 20
0.0
 30
0.0
  3
symbolLayer9
  1

  0
HATCH
  5
c7
330
79
100
AcDbEntity
  8
0
420
16251903
100
AcDbHatch
 10
0.0
 20
0.0
 30
0.0
210
0.0
220
0.0
230
1.0
  2
SOLID
 70
     1
 71
     0
 91
     1
 92
     3
 72
     1
 73
     1
 93
     2
 10
-0.0035
 20
0.0
 42
1.0
 10
0.0035
 20
0.0
 42
1.0
 97
     0
 75
     0
 76
     1
 98
     0
  0
LWPOLYLINE
  5
c8
330
79
  8
0
100
AcDbEntity
100
AcDbPolyline
  6
CONTINUOUS
420
     0
 90
     2
 70
     1
 43
0.0
 10
-0.0035
 20
0.0
 42
1.0
 10
0.0035
 20
0.0
 42
1.0
  0
ENDBLK
  5
c9
100
AcDbEntity
  8
0
100
AcDbBlockEnd
  0
BLOCK
  5
ca
330
7a
100
AcDbEntity
  8
0
100
AcDbBlockBegin
  2
symbolLayer10
 70
     0
 10
0.0
 20
0.0
 30
0.0
  3
symbolLayer10
  1

  0
HATCH
  5
cb
330
7a
100
AcDbEntity
  8
0
420
367367
440
33554617
100
AcDbHatch
 10
0.0
 20
0.0
 30
0.0
210
0.0
220
0.0
230
1.0
  2
SOLID
 70
     1
 71
     0
 91
     1
 92
     3
 72
     1
 73
     1
 93
     2
 10
-2.0
 20
0.0
 42
1.0
 10
2.0
 20
0.0
 42
1.0
 97
     0
 75
     0
 76
     1
 98
     0
  0
LWPOLYLINE
  5
cc
330
7a
  8
0
100
AcDbEntity
100
AcDbPolyline
  6
CONTINUOUS
420
     0
440
33554617
 90
     2
 70
     1
 43
0.0
 10
-2.0
 20
0.0
 42
1.0
 10
2.0
 20
0.0
 42
1.0
  0
ENDBLK
  5
cd
100
AcDbEntity
  8
0
100
AcDbBlockEnd
  0
BLOCK
  5
ce
330
7b
100
AcDbEntity
  8
0
100
AcDbBlockBegin
  2
symbolLayer11
 70
     0
 10
0.0
 20
0.0
 30
0.0
  3
symbolLayer11
  1

  0
HATCH
  5
cf
330
7b
100
AcDbEntity
  8
0
420
2945046
440
33554617
100
AcDbHatch
 10
0.0
 20
0.0
 30
0.0
210
0.0
220
0.0
230
1.0
  2
SOLID
 70
     1
 71
     0
 91
     1
 92
     3
 72
     1
 73
     1
 93
     2
 10
-2.0
 20
0.0
 42
1.0
 10
2.0
 20
0.0
 42
1.0
 97
     0
 75
     0
 76
     1
 98
     0
  0
LWPOLYLINE
  5
d0
330
7b
  8
0
100
AcDbEntity
100
AcDbPolyline
  6
CONTINUOUS
420
     0
440
33554617
 90
     2
 70
     1
 43
0.0
 10
-2.0
 20
0.0
 42
1.0
 10
2.0
 20
0.0
 42
1.0
  0
ENDBLK
  5
d1
100
AcDbEntity
  8
0
100
AcDbBlockEnd
  0
BLOCK
  5
d2
330
7c
100
AcDbEntity
  8
0
100
AcDbBlockBegin
  2
symbolLayer12
 70
     0
 10
0.0
 20
0.0
 30
0.0
  3
symbolLayer12
  1

  0
HATCH
  5
d3
330
7c
100
AcDbEntity
  8
0
420
13219072
440
33554617
100
AcDbHatch
 10
0.0
 20
0.0
 30
0.0
210
0.0
220
0.0
230
1.0
  2
SOLID
 70
     1
 71
     0
 91
     1
 92
     3
 72
     1
 73
     1
 93
     2
 10
-2.0
 20
0.0
 42
1.0
 10
2.0
 20
0.0
 42
1.0
 97
     0
 75
     0
 76
     1
 98
     0
  0
LWPOLYLINE
  5
d4
330
7c
  8
0
100
AcDbEntity
100
AcDbPolyline
  6
CONTINUOUS
420
     0
440
33554617
 90
     2
 70
     1
 43
0.0
 10
-2.0
 20
0.0
 42
1.0
 10
2.0
 20
0.0
 42
1.0
  0
ENDBLK
  5
d5
100
AcDbEntity
  8
0
100
AcDbBlockEnd
  0
BLOCK
  5
d6
330
7d
100
AcDbEntity
  8
0
100
AcDbBlockBegin
  2
symbolLayer13
 70
     0
 10
0.0
 20
0.0
 30
0.0
  3
symbolLayer13
  1

  0
HATCH
  5
d7
330
7d
100
AcDbEntity
  8
0
420
9561861
440
33554617
100
AcDbHatch
 10
0.0
 20
0.0
 30
0.0
210
0.0
220
0.0
230
1.0
  2
SOLID
 70
     1
 71
     0
 91
     1
 92
     3
 72
     1
 73
     1
 93
     2
 10
-2.0
 20
0.0
 42
1.0
 10
2.0
 20
0.0
 42
1.0
 97
     0
 75
     0
 76
     1
 98
     0
  0
LWPOLYLINE
  5
d8
330
7d
  8
0
100
AcDbEntity
100
AcDbPolyline
  6
CONTINUOUS
420
     0
440
33554617
 90
     2
 70
     1
 43
0.0
 10
-2.0
 20
0.0
 42
1.0
 10
2.0
 20
0.0
 42
1.0
  0
ENDBLK
  5
d9
100
AcDbEntity
  8
0
100
AcDbBlockEnd
  0
BLOCK
  5
da
330
7e
100
AcDbEntity
  8
0
100
AcDbBlockBegin
  2
symbolLayer14
 70
     0
 10
0.0
 20
0.0
 30
0.0
  3
symbolLayer14
  1

  0
HATCH
  5
db
330
7e
100
AcDbEntity
  8
0
420
10682373
440
33554617
100
AcDbHatch
 10
0.0
 20
0.0
 30
0.0
210
0.0
220
0.0
230
1.0
  2
SOLID
 70
     1
 71
     0
 91
     1
 92
     3
 72
     1
 73
     1
 93
     2
 10
-2.0
 20
0.0
 42
1.0
 10
2.0
 20
0.0
 42
1.0
 97
     0
 75
     0
 76
     1
 98
     0
  0
LWPOLYLINE
  5
dc
330
7e
  8
0
100
AcDbEntity
100
AcDbPolyline
  6
CONTINUOUS
420
     0
440
33554617
 90
     2
 70
     1
 43
0.0
 10
-2.0
 20
0.0
 42
1.0
 10
2.0
 20
0.0
 42
1.0
  0
ENDBLK
  5
dd
100
AcDbEntity
  8
0
100
AcDbBlockEnd
  0
BLOCK
  5
de
330
7f
100
AcDbEntity
  8
0
100
AcDbBlockBegin
  2
symbolLayer15
 70
     0
 10
0.0
 20
0.0
 30
0.0
  3
symbolLayer15
  1

  0
HATCH
  5
df
330
7f
100
AcDbEntity
  8
0
420
8274176
440
33554617
100
AcDbHatch
 10
0.0
 20
0.0
 30
0.0
210
0.0
220
0.0
230
1.0
  2
SOLID
 70
     1
 71
     0
 91
     1
 92
     3
 72
     1
 73
     1
 93
     2
 10
-2.0
 20
0.0
 42
1.0
 10
2.0
 20
0.0
 42
1.0
 97
     0
 75
     0
 76
     1
 98
     0
  0
LWPOLYLINE
  5
e0
330
7f
  8
0
100
AcDbEntity
100
AcDbPolyline
  6
CONTINUOUS
420
     0
440
33554617
 90
     2
 70
     1
 43
0.0
 10
-2.0
 20
0.0
 42
1.0
 10
2.0
 20
0.0
 42
1.0
  0
ENDBLK
  5
e1
100
AcDbEntity
  8
0
100
AcDbBlockEnd
  0
BLOCK
  5
e2
330
80
100
AcDbEntity
  8
0
100
AcDbBlockBegin
  2
symbolLayer16
 70
     0
 10
0.0
 20
0.0
 30
0.0
  3
symbolLayer16
  1

  0
HATCH
  5
e3
330
80
100
AcDbEntity
  8
0
420
16119040
440
33554617
100
AcDbHatch
 10
0.0
 20
0.0
 30
0.0
210
0.0
220
0.0
230
1.0
  2
SOLID
 70
     1
 71
     0
 91
     1
 92
     3
 72
     1
 73
     1
 93
     2
 10
-2.0
 20
0.0
 42
1.0
 10
2.0
 20
0.0
 42
1.0
 97
     0
 75
     0
 76
     1
 98
     0
  0
LWPOLYLINE
  5
e4
330
80
  8
0
100
AcDbEntity
100
AcDbPolyline
  6
CONTINUOUS
420
     0
440
33554617
 90
     2
 70
     1
 43
0.0
 10
-2.0
 20
0.0
 42
1.0
 10
2.0
 20
0.0
 42
1.0
  0
ENDBLK
  5
e5
100
AcDbEntity
  8
0
100
AcDbBlockEnd
  0
BLOCK
  5
e6
330
81
100
AcDbEntity
  8
0
100
AcDbBlockBegin
  2
symbolLayer17
 70
     0
 10
0.0
 20
0.0
 30
0.0
  3
symbolLayer17
  1

  0
HATCH
  5
e7
330
81
100
AcDbEntity
  8
0
420
15384320
440
33554617
100
AcDbHatch
 10
0.0
 20
0.0
 30
0.0
210
0.0
220
0.0
230
1.0
  2
SOLID
 70
     1
 71
     0
 91
     1
 92
     3
 72
     1
 73
     1
 93
     2
 10
-2.0
 20
0.0
 42
1.0
 10
2.0
 20
0.0
 42
1.0
 97
     0
 75
     0
 76
     1
 98
     0
  0
LWPOLYLINE
  5
e8
330
81
  8
0
100
AcDbEntity
100
AcDbPolyline
  6
CONTINUOUS
420
     0
440
33554617
 90
     2
 70
     1
 43
0.0
 10
-2.0
 20
0.0
 42
1.0
 10
2.0
 20
0.0
 42
1.0
  0
ENDBLK
  5
e9
100
AcDbEntity
  8
0
100
AcDbBlockEnd
  0
BLOCK
  5
ea
330
82
100
AcDbEntity
  8
0
100
AcDbBlockBegin
  2
symbolLayer18
 70
     0
 10
0.0
 20
0.0
 30
0.0
  3
symbolLayer18
  1

  0
HATCH
  5
eb
330
82
100
AcDbEntity
  8
0
420
2761418
440
33554617
100
AcDbHatch
 10
0.0
 20
0.0
 30
0.0
210
0.0
220
0.0
230
1.0
  2
SOLID
 70
     1
 71
     0
 91
     1
 92
     3
 72
     1
 73
     1
 93
     2
 10
-2.0
 20
0.0
 42
1.0
 10
2.0
 20
0.0
 42
1.0
 97
     0
 75
     0
 76
     1
 98
     0
  0
LWPOLYLINE
  5
ec
330
82
  8
0
100
AcDbEntity
100
AcDbPolyline
  6
CONTINUOUS
420
     0
440
33554617
 90
     2
 70
     1
 43
0.0
 10
-2.0
 20
0.0
 42
1.0
 10
2.0
 20
0.0
 42
1.0
  0
ENDBLK
  5
ed
100
AcDbEntity
  8
0
100
AcDbBlockEnd
  0
BLOCK
  5
ee
330
83
100
AcDbEntity
  8
0
100
AcDbBlockBegin
  2
symbolLayer19
 70
     0
 10
0.0
 20
0.0
 30
0.0
  3
symbolLayer19
  1

  0
HATCH
  5
ef
330
83
100
AcDbEntity
  8
0
420
7134976
440
33554617
100
AcDbHatch
 10
0.0
 20
0.0
 30
0.0
210
0.0
220
0.0
230
1.0
  2
SOLID
 70
     1
 71
     0
 91
     1
 92
     3
 72
     1
 73
     1
 93
     2
 10
-2.0
 20
0.0
 42
1.0
 10
2.0
 20
0.0
 42
1.0
 97
     0
 75
     0
 76
     1
 98
     0
  0
LWPOLYLINE
  5
f0
330
83
  8
0
100
AcDbEntity
100
AcDbPolyline
  6
CONTINUOUS
420
     0
440
33554617
 90
     2
 70
     1
 43
0.0
 10
-2.0
 20
0.0
 42
1.0
 10
2.0
 20
0.0
 42
1.0
  0
ENDBLK
  5
f1
100
AcDbEntity
  8
0
100
AcDbBlockEnd
  0
BLOCK
  5
f2
330
84
100
AcDbEntity
  8
0
100
AcDbBlockBegin
  2
symbolLayer20
 70
     0
 10
0.0
 20
0.0
 30
0.0
  3
symbolLayer20
  1

  0
HATCH
  5
f3
330
84
100
AcDbEntity
  8
0
420
13516864
440
33554617
100
AcDbHatch
 10
0.0
 20
0.0
 30
0.0
210
0.0
220
0.0
230
1.0
  2
SOLID
 70
     1
 71
     0
 91
     1
 92
     3
 72
     1
 73
     1
 93
     2
 10
-2.0
 20
0.0
 42
1.0
 10
2.0
 20
0.0
 42
1.0
 97
     0
 75
     0
 76
     1
 98
     0
  0
LWPOLYLINE
  5
f4
330
84
  8
0
100
AcDbEntity
100
AcDbPolyline
  6
CONTINUOUS
420
     0
440
33554617
 90
     2
 70
     1
 43
0.0
 10
-2.0
 20
0.0
 42
1.0
 10
2.0
 20
0.0
 42
1.0
  0
ENDBLK
  5
f5
100
AcDbEntity
  8
0
100
AcDbBlockEnd
  0
BLOCK
  5
f6
330
85
100
AcDbEntity
  8
0
100
AcDbBlockBegin
  2
symbolLayer21
 70
     0
 10
0.0
 20
0.0
 30
0.0
  3
symbolLayer21
  1

  0
HATCH
  5
f7
330
85
100
AcDbEntity
  8
0
420
16213760
440
33554617
100
AcDbHatch
 10
0.0
 20
0.0
 30
0.0
210
0.0
220
0.0
230
1.0
  2
SOLID
 70
     1
 71
     0
 91
     1
 92
     3
 72
     1
 73
     1
 93
     2
 10
-2.0
 20
0.0
 42
1.0
 10
2.0
 20
0.0
 42
1.0
 97
     0
 75
     0
 76
     1
 98
     0
  0
LWPOLYLINE
  5
f8
330
85
  8
0
100
AcDbEntity
100
AcDbPolyline
  6
CONTINUOUS
420
     0
440
33554617
 90
     2
 70
     1
 43
0.0
 10
-2.0
 20
0.0
 42
1.0
 10
2.0
 20
0.0
 42
1.0
  0
ENDBLK
  5
f9
100
AcDbEntity
  8
0
100
AcDbBlockEnd
  0
BLOCK
  5
fa
330
86
100
AcDbEntity
  8
0
100
AcDbBlockBegin
  2
symbolLayer22
 70
     0
 10
0.0
 20
0.0
 30
0.0
  3
symbolLayer22
  1

  0
HATCH
  5
fb
330
86
100
AcDbEntity
  8
0
420
5624758
440
33554617
100
AcDbHatch
 10
0.0
 20
0.0
 30
0.0
210
0.0
220
0.0
230
1.0
  2
SOLID
 70
     1
 71
     0
 91
     1
 92
     3
 72
     1
 73
     1
 93
     2
 10
-2.0
 20
0.0
 42
1.0
 10
2.0
 20
0.0
 42
1.0
 97
     0
 75
     0
 76
     1
 98
     0
  0
LWPOLYLINE
  5
fc
330
86
  8
0
100
AcDbEntity
100
AcDbPolyline
  6
CONTINUOUS
420
     0
440
33554617
 90
     2
 70
     1
 43
0.0
 10
-2.0
 20
0.0
 42
1.0
 10
2.0
 20
0.0
 42
1.0
  0
ENDBLK
  5
fd
100
AcDbEntity
  8
0
100
AcDbBlockEnd
  0
BLOCK
  5
fe
330
87
100
AcDbEntity
  8
0
100
AcDbBlockBegin
  2
symbolLayer23
 70
     0
 10
0.0
 20
0.0
 30
0.0
  3
symbolLayer23
  1

  0
HATCH
  5
ff
330
87
100
AcDbEntity
  8
0
420
5624758
440
33554617
100
AcDbHatch
 10
0.0
 20
0.0
 30
0.0
210
0.0
220
0.0
230
1.0
  2
SOLID
 70
     1
 71
     0
 91
     1
 92
     3
 72
     1
 73
     1
 93
     2
 10
-2.0
 20
0.0
 42
1.0
 10
2.0
 20
0.0
 42
1.0
 97
     0
 75
     0
 76
     1
 98
     0
  0
LWPOLYLINE
  5
100
330
87
  8
0
100
AcDbEntity
100
AcDbPolyline
  6
CONTINUOUS
420
     0
440
33554617
 90
     2
 70
     1
 43
0.0
 10
-2.0
 20
0.0
 42
1.0
 10
2.0
 20
0.0
 42
1.0
  0
ENDBLK
  5
101
100
AcDbEntity
  8
0
100
AcDbBlockEnd
  0
ENDSEC
  0
SECTION
  2
ENTITIES
  0
LWPOLYLINE
  5
102
  8
heho_grundstück
100
AcDbEntity
100
AcDbPolyline
  6
CONTINUOUS
420
     0
 90
    11
 70
     1
 43
0.00026
 10
1620316.66824866738170385
 20
6898342.81168034672737122
 10
1620454.4752833298407495
 20
6898391.13362756837159395
 10
1620469.74740492017008364
 20
6898383.49756677262485027
 10
1620499.9734789002686739
 20
6898294.09202163107693195
 10
1620478.61637136316858232
 20
6898282.3595323832705617
 10
1620471.29847976798191667
 20
6898269.63276439066976309
 10
1620556.56782531458884478
 20
6898101.63942689821124077
 10
1620412.75534700602293015
 20
6898016.68825055286288261
 10
1620298.53260427876375616
 20
6898188.18144924473017454
 10
1620344.34896904975175858
 20
6898213.31681602820754051
 10
1620311.89571067038923502
 20
6898295.72263877652585506
  0
LWPOLYLINE
  5
103
  8
heho_versigelte_fläche
100
AcDbEntity
100
AcDbPolyline
  6
CONTINUOUS
420
     0
 90
    41
 70
     1
 43
0.00026
 10
1620361.63390049710869789
 20
6898190.79012539144605398
 10
1620357.38971912441775203
 20
6898199.59521808940917253
 10
1620356.12279931153170764
 20
6898199.2151421457529068
 10
1620351.94196392968297005
 20
6898208.52700276859104633
 10
1620353.65230567683465779
 20
6898209.66723060049116611
 10
1620336.99231013981625438
 20
6898255.78311178181320429
 10
1620345.10059694107621908
 20
6898268.95907783415168524
 10
1620393.24354982352815568
 20
6898287.0760311558842659
 10
1620398.31122907437384129
 20
6898290.37002266850322485
 10
1620397.55107718612998724
 20
6898297.97154154442250729
 10
1620370.69237715704366565
 20
6898317.48210666049271822
 10
1620354.2224195918533951
 20
6898329.13776893727481365
 10
1620346.11441916064359248
 20
6898337.94467226602137089
 10
1620341.28820203151553869
 20
6898351.44465100765228271
 10
1620353.36784227518364787
 20
6898355.69428947102278471
 10
1620359.29009884269908071
 20
6898340.2866632891818881
 10
1620366.6382337564136833
 20
6898327.87084912415593863
 10
1620374.746520557673648
 20
6898320.52271421067416668
 10
1620385.64203094691038132
 20
6898321.53625006135553122
 10
1620400.33830077410675585
 20
6898326.09716138709336519
 10
1620410.72704323823563755
 20
6898329.64611968025565147
 10
1620409.84099077875725925
 20
6898332.4317604498937726
 10
1620413.51426682621240616
 20
6898339.77989536337554455
 10
1620412.5337889373768121
 20
6898342.78427931573241949
 10
1620418.83058158471249044
 20
6898344.84282615967094898
 10
1620436.57062459923326969
 20
6898291.38514133729040623
 10
1620431.56906127091497183
 20
6898289.76724649593234062
 10
1620419.34209796460345387
 20
6898325.84377742372453213
 10
1620392.23001397284679115
 20
6898316.97533873561769724
 10
1620385.37499761418439448
 20
6898313.90624855179339647
 10
1620430.23760835384018719
 20
6898282.26173586770892143
 10
1620448.73463761922903359
 20
6898233.86539902165532112
 10
1620450.25494139455258846
 20
6898228.29095184616744518
 10
1620449.24140554433688521
 20
6898227.27741599641740322
 10
1620454.67521539609879255
 20
6898212.28563020471483469
 10
1620468.93107891478575766
 20
6898217.78075927030295134
 10
1620483.32075709709897637
 20
6898178.78665372263640165
 10
1620457.09630838362500072
 20
6898168.23895272519439459
 10
1620442.40003855619579554
 20
6898208.52700276859104633
 10
1620434.0512194677721709
 20
6898205.42344493325799704
 10
1620430.01366189937107265
 20
6898216.0636474285274744
  0
LWPOLYLINE
  5
104
  8
heho_versigelte_fläche
100
AcDbEntity
100
AcDbPolyline
  6
CONTINUOUS
420
     0
 90
    16
 70
     1
 43
0.00026
 10
1620365.79356246348470449
 20
6898229.44364130310714245
 10
1620357.9810470282100141
 20
6898226.57363742683082819
 10
1620349.22535497741773725
 20
6898249.78645665943622589
 10
1620355.20027553616091609
 20
6898251.99434430338442326
 10
1620353.98327694647014141
 20
6898255.25527785625308752
 10
1620408.44658757629804313
 20
6898275.67375284153968096
 10
1620411.96175481285899878
 20
6898277.00705754105001688
 10
1620410.58268030849285424
 20
6898281.39054436050355434
 10
1620408.21855258685536683
 20
6898283.55766143836081028
 10
1620405.06638229149393737
 20
6898284.24719869066029787
 10
1620348.32731697289273143
 20
6898263.56108112633228302
 10
1620344.58411474712193012
 20
6898256.46869796141982079
 10
1620343.20504024275578558
 20
6898253.11951702274382114
 10
1620354.08987829438410699
 20
6898225.04550032690167427
 10
1620360.64048218983225524
 20
6898220.95752947498112917
 10
1620365.66425359807908535
 20
6898222.7798779271543026
  0
LWPOLYLINE
  5
105
  8
heho_versigelte_fläche
100
AcDbEntity
100
AcDbPolyline
  6
CONTINUOUS
420
     0
 90
     4
 70
     1
 43
0.00026
 10
1620385.74053626949898899
 20
6898232.17864549066871405
 10
1620390.84467646735720336
 20
6898227.02791993319988251
 10
1620401.38474589283578098
 20
6898230.82037482038140297
 10
1620399.01777656306512654
 20
6898237.21576385386288166
  0
LWPOLYLINE
  5
106
  8
heho_versigelte_fläche
100
AcDbEntity
100
AcDbPolyline
  6
CONTINUOUS
420
     0
 90
    41
 70
     1
 43
0.00026
 10
1620361.63390049710869789
 20
6898190.79012539144605398
 10
1620357.38971912441775203
 20
6898199.59521808940917253
 10
1620356.12279931153170764
 20
6898199.2151421457529068
 10
1620351.94196392968297005
 20
6898208.52700276859104633
 10
1620353.65230567683465779
 20
6898209.66723060049116611
 10
1620336.99231013981625438
 20
6898255.78311178181320429
 10
1620345.10059694107621908
 20
6898268.95907783415168524
 10
1620393.24354982352815568
 20
6898287.0760311558842659
 10
1620398.31122907437384129
 20
6898290.37002266850322485
 10
1620397.55107718612998724
 20
6898297.97154154442250729
 10
1620370.69237715704366565
 20
6898317.48210666049271822
 10
1620354.2224195918533951
 20
6898329.13776893727481365
 10
1620346.11441916064359248
 20
6898337.94467226602137089
 10
1620341.28820203151553869
 20
6898351.44465100765228271
 10
1620353.36784227518364787
 20
6898355.69428947102278471
 10
1620359.29009884269908071
 20
6898340.2866632891818881
 10
1620366.6382337564136833
 20
6898327.87084912415593863
 10
1620374.746520557673648
 20
6898320.52271421067416668
 10
1620385.64203094691038132
 20
6898321.53625006135553122
 10
1620400.33830077410675585
 20
6898326.09716138709336519
 10
1620410.72704323823563755
 20
6898329.64611968025565147
 10
1620409.84099077875725925
 20
6898332.4317604498937726
 10
1620413.51426682621240616
 20
6898339.77989536337554455
 10
1620412.5337889373768121
 20
6898342.78427931573241949
 10
1620418.83058158471249044
 20
6898344.84282615967094898
 10
1620436.57062459923326969
 20
6898291.38514133729040623
 10
1620431.56906127091497183
 20
6898289.76724649593234062
 10
1620419.34209796460345387
 20
6898325.84377742372453213
 10
1620392.23001397284679115
 20
6898316.97533873561769724
 10
1620385.37499761418439448
 20
6898313.90624855179339647
 10
1620430.23760835384018719
 20
6898282.26173586770892143
 10
1620448.73463761922903359
 20
6898233.86539902165532112
 10
1620450.25494139455258846
 20
6898228.29095184616744518
 10
1620449.24140554433688521
 20
6898227.27741599641740322
 10
1620454.67521539609879255
 20
6898212.28563020471483469
 10
1620468.93107891478575766
 20
6898217.78075927030295134
 10
1620483.32075709709897637
 20
6898178.78665372263640165
 10
1620457.09630838362500072
 20
6898168.23895272519439459
 10
1620442.40003855619579554
 20
6898208.52700276859104633
 10
1620434.0512194677721709
 20
6898205.42344493325799704
 10
1620430.01366189937107265
 20
6898216.0636474285274744
  0
LWPOLYLINE
  5
107
  8
heho_versigelte_fläche
100
AcDbEntity
100
AcDbPolyline
  6
CONTINUOUS
420
     0
 90
    16
 70
     1
 43
0.00026
 10
1620365.79356246348470449
 20
6898229.44364130310714245
 10
1620357.9810470282100141
 20
6898226.57363742683082819
 10
1620349.22535497741773725
 20
6898249.78645665943622589
 10
1620355.20027553616091609
 20
6898251.99434430338442326
 10
1620353.98327694647014141
 20
6898255.25527785625308752
 10
1620408.44658757629804313
 20
6898275.67375284153968096
 10
1620411.96175481285899878
 20
6898277.00705754105001688
 10
1620410.58268030849285424
 20
6898281.39054436050355434
 10
1620408.21855258685536683
 20
6898283.55766143836081028
 10
1620405.06638229149393737
 20
6898284.24719869066029787
 10
1620348.32731697289273143
 20
6898263.56108112633228302
 10
1620344.58411474712193012
 20
6898256.46869796141982079
 10
1620343.20504024275578558
 20
6898253.11951702274382114
 10
1620354.08987829438410699
 20
6898225.04550032690167427
 10
1620360.64048218983225524
 20
6898220.95752947498112917
 10
1620365.66425359807908535
 20
6898222.7798779271543026
  0
LWPOLYLINE
  5
108
  8
heho_versigelte_fläche
100
AcDbEntity
100
AcDbPolyline
  6
CONTINUOUS
420
     0
 90
     4
 70
     1
 43
0.00026
 10
1620385.74053626949898899
 20
6898232.17864549066871405
 10
1620390.84467646735720336
 20
6898227.02791993319988251
 10
1620401.38474589283578098
 20
6898230.82037482038140297
 10
1620399.01777656306512654
 20
6898237.21576385386288166
  0
HATCH
  5
109
330
6d
100
AcDbEntity
  8
heho_versigelte_fläche
420
4809822
100
AcDbHatch
 10
0.0
 20
0.0
 30
0.0
210
0.0
220
0.0
230
1.0
  2
SOLID
 70
     1
 71
     0
 91
     3
 92
     2
 72
     0
 73
     1
 93
    42
 10
1620361.63390049710869789
 20
6898190.79012539144605398
 10
1620357.38971912441775203
 20
6898199.59521808940917253
 10
1620356.12279931153170764
 20
6898199.2151421457529068
 10
1620351.94196392968297005
 20
6898208.52700276859104633
 10
1620353.65230567683465779
 20
6898209.66723060049116611
 10
1620336.99231013981625438
 20
6898255.78311178181320429
 10
1620345.10059694107621908
 20
6898268.95907783415168524
 10
1620393.24354982352815568
 20
6898287.0760311558842659
 10
1620398.31122907437384129
 20
6898290.37002266850322485
 10
1620397.55107718612998724
 20
6898297.97154154442250729
 10
1620370.69237715704366565
 20
6898317.48210666049271822
 10
1620354.2224195918533951
 20
6898329.13776893727481365
 10
1620346.11441916064359248
 20
6898337.94467226602137089
 10
1620341.28820203151553869
 20
6898351.44465100765228271
 10
1620353.36784227518364787
 20
6898355.69428947102278471
 10
1620359.29009884269908071
 20
6898340.2866632891818881
 10
1620366.6382337564136833
 20
6898327.87084912415593863
 10
1620374.746520557673648
 20
6898320.52271421067416668
 10
1620385.64203094691038132
 20
6898321.53625006135553122
 10
1620400.33830077410675585
 20
6898326.09716138709336519
 10
1620410.72704323823563755
 20
6898329.64611968025565147
 10
1620409.84099077875725925
 20
6898332.4317604498937726
 10
1620413.51426682621240616
 20
6898339.77989536337554455
 10
1620412.5337889373768121
 20
6898342.78427931573241949
 10
1620418.83058158471249044
 20
6898344.84282615967094898
 10
1620436.57062459923326969
 20
6898291.38514133729040623
 10
1620431.56906127091497183
 20
6898289.76724649593234062
 10
1620419.34209796460345387
 20
6898325.84377742372453213
 10
1620392.23001397284679115
 20
6898316.97533873561769724
 10
1620385.37499761418439448
 20
6898313.90624855179339647
 10
1620430.23760835384018719
 20
6898282.26173586770892143
 10
1620448.73463761922903359
 20
6898233.86539902165532112
 10
1620450.25494139455258846
 20
6898228.29095184616744518
 10
1620449.24140554433688521
 20
6898227.27741599641740322
 10
1620454.67521539609879255
 20
6898212.28563020471483469
 10
1620468.93107891478575766
 20
6898217.78075927030295134
 10
1620483.32075709709897637
 20
6898178.78665372263640165
 10
1620457.09630838362500072
 20
6898168.23895272519439459
 10
1620442.40003855619579554
 20
6898208.52700276859104633
 10
1620434.0512194677721709
 20
6898205.42344493325799704
 10
1620430.01366189937107265
 20
6898216.0636474285274744
 10
1620361.63390049710869789
 20
6898190.79012539144605398
 97
     0
 92
     2
 72
     0
 73
     1
 93
    17
 10
1620365.79356246348470449
 20
6898229.44364130310714245
 10
1620357.9810470282100141
 20
6898226.57363742683082819
 10
1620349.22535497741773725
 20
6898249.78645665943622589
 10
1620355.20027553616091609
 20
6898251.99434430338442326
 10
1620353.98327694647014141
 20
6898255.25527785625308752
 10
1620408.44658757629804313
 20
6898275.67375284153968096
 10
1620411.96175481285899878
 20
6898277.00705754105001688
 10
1620410.58268030849285424
 20
6898281.39054436050355434
 10
1620408.21855258685536683
 20
6898283.55766143836081028
 10
1620405.06638229149393737
 20
6898284.24719869066029787
 10
1620348.32731697289273143
 20
6898263.56108112633228302
 10
1620344.58411474712193012
 20
6898256.46869796141982079
 10
1620343.20504024275578558
 20
6898253.11951702274382114
 10
1620354.08987829438410699
 20
6898225.04550032690167427
 10
1620360.64048218983225524
 20
6898220.95752947498112917
 10
1620365.66425359807908535
 20
6898222.7798779271543026
 10
1620365.79356246348470449
 20
6898229.44364130310714245
 97
     0
 92
     2
 72
     0
 73
     1
 93
     5
 10
1620385.74053626949898899
 20
6898232.17864549066871405
 10
1620390.84467646735720336
 20
6898227.02791993319988251
 10
1620401.38474589283578098
 20
6898230.82037482038140297
 10
1620399.01777656306512654
 20
6898237.21576385386288166
 10
1620385.74053626949898899
 20
6898232.17864549066871405
 97
     0
 75
     0
 76
     1
 98
     0
  0
LWPOLYLINE
  5
10a
  8
heho_gebäude
100
AcDbEntity
100
AcDbPolyline
  6
CONTINUOUS
420
     0
 90
     4
 70
     1
 43
0.00026
 10
1620399.32476492482237518
 20
6898339.01974347606301308
 10
1620406.92628380097448826
 20
6898341.30019913893193007
 10
1620412.69467758247628808
 20
6898323.6693875789642334
 10
1620405.05100341560319066
 20
6898321.16912032850086689
  0
LWPOLYLINE
  5
10b
  8
heho_gebäude
100
AcDbEntity
100
AcDbPolyline
  6
CONTINUOUS
420
     0
 90
     4
 70
     1
 43
0.00026
 10
1620399.32476492482237518
 20
6898339.01974347606301308
 10
1620406.92628380097448826
 20
6898341.30019913893193007
 10
1620412.69467758247628808
 20
6898323.6693875789642334
 10
1620405.05100341560319066
 20
6898321.16912032850086689
  0
HATCH
  5
10c
330
6d
100
AcDbEntity
  8
heho_gebäude
 62
    24
100
AcDbHatch
 10
0.0
 20
0.0
 30
0.0
210
0.0
220
0.0
230
1.0
  2
SOLID
 70
     1
 71
     0
 91
     1
 92
     2
 72
     0
 73
     1
 93
     5
 10
1620399.32476492482237518
 20
6898339.01974347606301308
 10
1620406.92628380097448826
 20
6898341.30019913893193007
 10
1620412.69467758247628808
 20
6898323.6693875789642334
 10
1620405.05100341560319066
 20
6898321.16912032850086689
 10
1620399.32476492482237518
 20
6898339.01974347606301308
 97
     0
 75
     0
 76
     1
 98
     0
  0
LWPOLYLINE
  5
10d
  8
heho_gebäude
100
AcDbEntity
100
AcDbPolyline
  6
CONTINUOUS
420
     0
 90
     4
 70
     1
 43
0.00026
 10
1620418.83058158471249044
 20
6898344.84282615967094898
 10
1620437.33235930604860187
 20
6898350.67540575284510851
 10
1620454.81585272122174501
 20
6898296.95800569374114275
 10
1620436.57062459923326969
 20
6898291.38514133729040623
  0
LWPOLYLINE
  5
10e
  8
heho_gebäude
100
AcDbEntity
100
AcDbPolyline
  6
CONTINUOUS
420
     0
 90
     4
 70
     1
 43
0.00026
 10
1620418.83058158471249044
 20
6898344.84282615967094898
 10
1620437.33235930604860187
 20
6898350.67540575284510851
 10
1620454.81585272122174501
 20
6898296.95800569374114275
 10
1620436.57062459923326969
 20
6898291.38514133729040623
  0
HATCH
  5
10f
330
6d
100
AcDbEntity
  8
heho_gebäude
 62
    24
100
AcDbHatch
 10
0.0
 20
0.0
 30
0.0
210
0.0
220
0.0
230
1.0
  2
SOLID
 70
     1
 71
     0
 91
     1
 92
     2
 72
     0
 73
     1
 93
     5
 10
1620418.83058158471249044
 20
6898344.84282615967094898
 10
1620437.33235930604860187
 20
6898350.67540575284510851
 10
1620454.81585272122174501
 20
6898296.95800569374114275
 10
1620436.57062459923326969
 20
6898291.38514133729040623
 10
1620418.83058158471249044
 20
6898344.84282615967094898
 97
     0
 75
     0
 76
     1
 98
     0
  0
LWPOLYLINE
  5
110
  8
heho_gebäude
100
AcDbEntity
100
AcDbPolyline
  6
CONTINUOUS
420
     0
 90
    14
 70
     1
 43
0.00026
 10
1620410.08159255259670317
 20
6898271.13043198082596064
 10
1620418.31736274436116219
 20
6898274.043556141667068
 10
1620425.16834628558717668
 20
6898255.78548600990325212
 10
1620416.80825833999551833
 20
6898252.61739506945014
 10
1620418.20107872481457889
 20
6898248.81346999388188124
 10
1620397.54949436895549297
 20
6898241.08446772675961256
 10
1620399.01777656306512654
 20
6898237.21576385386288166
 10
1620385.74053626949898899
 20
6898232.17864549066871405
 10
1620384.25079338112846017
 20
6898236.22408541571348906
 10
1620357.9810470282100141
 20
6898226.57363742683082819
 10
1620349.22535497741773725
 20
6898249.78645665943622589
 10
1620355.20027553616091609
 20
6898251.99434430338442326
 10
1620353.98327694647014141
 20
6898255.25527785625308752
 10
1620408.44658757629804313
 20
6898275.67375284153968096
  0
LWPOLYLINE
  5
111
  8
heho_gebäude
100
AcDbEntity
100
AcDbPolyline
  6
CONTINUOUS
420
     0
 90
    14
 70
     1
 43
0.00026
 10
1620410.08159255259670317
 20
6898271.13043198082596064
 10
1620418.31736274436116219
 20
6898274.043556141667068
 10
1620425.16834628558717668
 20
6898255.78548600990325212
 10
1620416.80825833999551833
 20
6898252.61739506945014
 10
1620418.20107872481457889
 20
6898248.81346999388188124
 10
1620397.54949436895549297
 20
6898241.08446772675961256
 10
1620399.01777656306512654
 20
6898237.21576385386288166
 10
1620385.74053626949898899
 20
6898232.17864549066871405
 10
1620384.25079338112846017
 20
6898236.22408541571348906
 10
1620357.9810470282100141
 20
6898226.57363742683082819
 10
1620349.22535497741773725
 20
6898249.78645665943622589
 10
1620355.20027553616091609
 20
6898251.99434430338442326
 10
1620353.98327694647014141
 20
6898255.25527785625308752
 10
1620408.44658757629804313
 20
6898275.67375284153968096
  0
HATCH
  5
112
330
6d
100
AcDbEntity
  8
heho_gebäude
 62
    24
100
AcDbHatch
 10
0.0
 20
0.0
 30
0.0
210
0.0
220
0.0
230
1.0
  2
SOLID
 70
     1
 71
     0
 91
     1
 92
     2
 72
     0
 73
     1
 93
    15
 10
1620410.08159255259670317
 20
6898271.13043198082596064
 10
1620418.31736274436116219
 20
6898274.043556141667068
 10
1620425.16834628558717668
 20
6898255.78548600990325212
 10
1620416.80825833999551833
 20
6898252.61739506945014
 10
1620418.20107872481457889
 20
6898248.81346999388188124
 10
1620397.54949436895549297
 20
6898241.08446772675961256
 10
1620399.01777656306512654
 20
6898237.21576385386288166
 10
1620385.74053626949898899
 20
6898232.17864549066871405
 10
1620384.25079338112846017
 20
6898236.22408541571348906
 10
1620357.9810470282100141
 20
6898226.57363742683082819
 10
1620349.22535497741773725
 20
6898249.78645665943622589
 10
1620355.20027553616091609
 20
6898251.99434430338442326
 10
1620353.98327694647014141
 20
6898255.25527785625308752
 10
1620408.44658757629804313
 20
6898275.67375284153968096
 10
1620410.08159255259670317
 20
6898271.13043198082596064
 97
     0
 75
     0
 76
     1
 98
     0
  0
LWPOLYLINE
  5
113
  8
heho_gebäude
100
AcDbEntity
100
AcDbPolyline
  6
CONTINUOUS
420
     0
 90
    20
 70
     1
 43
0.00026
 10
1620427.703768728999421
 20
6898226.77064807154238224
 10
1620431.37783618597313762
 20
6898216.60361657477915287
 10
1620430.01366189937107265
 20
6898216.0636474285274744
 10
1620459.3767640464939177
 20
6898138.33964514546096325
 10
1620447.72110176994465292
 20
6898134.03211778216063976
 10
1620418.27659970032982528
 20
6898211.72556706611067057
 10
1620413.40392201207578182
 20
6898209.92459958046674728
 10
1620443.41357440664432943
 20
6898132.51181400660425425
 10
1620431.757912129862234
 20
6898127.95090268086642027
 10
1620402.34526731353253126
 20
6898205.83726222440600395
 10
1620397.41780285141430795
 20
6898204.01604525651782751
 10
1620416.3014904148876667
 20
6898154.80960271041840315
 10
1620407.17966776341199875
 20
6898151.26222723536193371
 10
1620388.17587057291530073
 20
6898200.60914964415132999
 10
1620383.04484533169306815
 20
6898198.70837421994656324
 10
1620402.36537247523665428
 20
6898149.74192345980554819
 10
1620392.7367818986531347
 20
6898145.94116402138024569
 10
1620373.73406768124550581
 20
6898195.26241127960383892
 10
1620372.60409235279075801
 20
6898194.84476641286164522
 10
1620368.79199743852950633
 20
6898204.78958932217210531
  0
LWPOLYLINE
  5
114
  8
heho_gebäude
100
AcDbEntity
100
AcDbPolyline
  6
CONTINUOUS
420
     0
 90
    20
 70
     1
 43
0.00026
 10
1620427.703768728999421
 20
6898226.77064807154238224
 10
1620431.37783618597313762
 20
6898216.60361657477915287
 10
1620430.01366189937107265
 20
6898216.0636474285274744
 10
1620459.3767640464939177
 20
6898138.33964514546096325
 10
1620447.72110176994465292
 20
6898134.03211778216063976
 10
1620418.27659970032982528
 20
6898211.72556706611067057
 10
1620413.40392201207578182
 20
6898209.92459958046674728
 10
1620443.41357440664432943
 20
6898132.51181400660425425
 10
1620431.757912129862234
 20
6898127.95090268086642027
 10
1620402.34526731353253126
 20
6898205.83726222440600395
 10
1620397.41780285141430795
 20
6898204.01604525651782751
 10
1620416.3014904148876667
 20
6898154.80960271041840315
 10
1620407.17966776341199875
 20
6898151.26222723536193371
 10
1620388.17587057291530073
 20
6898200.60914964415132999
 10
1620383.04484533169306815
 20
6898198.70837421994656324
 10
1620402.36537247523665428
 20
6898149.74192345980554819
 10
1620392.7367818986531347
 20
6898145.94116402138024569
 10
1620373.73406768124550581
 20
6898195.26241127960383892
 10
1620372.60409235279075801
 20
6898194.84476641286164522
 10
1620368.79199743852950633
 20
6898204.78958932217210531
  0
HATCH
  5
115
330
6d
100
AcDbEntity
  8
heho_gebäude
 62
    24
100
AcDbHatch
 10
0.0
 20
0.0
 30
0.0
210
0.0
220
0.0
230
1.0
  2
SOLID
 70
     1
 71
     0
 91
     1
 92
     2
 72
     0
 73
     1
 93
    21
 10
1620427.703768728999421
 20
6898226.77064807154238224
 10
1620431.37783618597313762
 20
6898216.60361657477915287
 10
1620430.01366189937107265
 20
6898216.0636474285274744
 10
1620459.3767640464939177
 20
6898138.33964514546096325
 10
1620447.72110176994465292
 20
6898134.03211778216063976
 10
1620418.27659970032982528
 20
6898211.72556706611067057
 10
1620413.40392201207578182
 20
6898209.92459958046674728
 10
1620443.41357440664432943
 20
6898132.51181400660425425
 10
1620431.757912129862234
 20
6898127.95090268086642027
 10
1620402.34526731353253126
 20
6898205.83726222440600395
 10
1620397.41780285141430795
 20
6898204.01604525651782751
 10
1620416.3014904148876667
 20
6898154.80960271041840315
 10
1620407.17966776341199875
 20
6898151.26222723536193371
 10
1620388.17587057291530073
 20
6898200.60914964415132999
 10
1620383.04484533169306815
 20
6898198.70837421994656324
 10
1620402.36537247523665428
 20
6898149.74192345980554819
 10
1620392.7367818986531347
 20
6898145.94116402138024569
 10
1620373.73406768124550581
 20
6898195.26241127960383892
 10
1620372.60409235279075801
 20
6898194.84476641286164522
 10
1620368.79199743852950633
 20
6898204.78958932217210531
 10
1620427.703768728999421
 20
6898226.77064807154238224
 97
     0
 75
     0
 76
     1
 98
     0
  0
LWPOLYLINE
  5
116
  8
heho_gebäude
100
AcDbEntity
100
AcDbPolyline
  6
CONTINUOUS
420
     0
 90
     4
 70
     1
 43
0.00026
 10
1620468.93107891478575766
 20
6898217.78075927030295134
 10
1620487.13654926209710538
 20
6898224.66663248743861914
 10
1620501.81857777293771505
 20
6898185.93340212851762772
 10
1620483.32075709709897637
 20
6898178.78665372263640165
  0
LWPOLYLINE
  5
117
  8
heho_gebäude
100
AcDbEntity
100
AcDbPolyline
  6
CONTINUOUS
420
     0
 90
     4
 70
     1
 43
0.00026
 10
1620468.93107891478575766
 20
6898217.78075927030295134
 10
1620487.13654926209710538
 20
6898224.66663248743861914
 10
1620501.81857777293771505
 20
6898185.93340212851762772
 10
1620483.32075709709897637
 20
6898178.78665372263640165
  0
HATCH
  5
118
330
6d
100
AcDbEntity
  8
heho_gebäude
 62
    24
100
AcDbHatch
 10
0.0
 20
0.0
 30
0.0
210
0.0
220
0.0
230
1.0
  2
SOLID
 70
     1
 71
     0
 91
     1
 92
     2
 72
     0
 73
     1
 93
     5
 10
1620468.93107891478575766
 20
6898217.78075927030295134
 10
1620487.13654926209710538
 20
6898224.66663248743861914
 10
1620501.81857777293771505
 20
6898185.93340212851762772
 10
1620483.32075709709897637
 20
6898178.78665372263640165
 10
1620468.93107891478575766
 20
6898217.78075927030295134
 97
     0
 75
     0
 76
     1
 98
     0
  0
LWPOLYLINE
  5
119
  8
heho_gebäude
100
AcDbEntity
100
AcDbPolyline
  6
CONTINUOUS
420
     0
 90
     4
 70
     1
 43
0.00026
 10
1620467.86512679257430136
 20
6898154.1761428052559495
 10
1620508.65994476131163538
 20
6898169.12579659558832645
 10
1620512.96747212461195886
 20
6898158.99043809343129396
 10
1620471.66588623053394258
 20
6898143.28063241578638554
  0
LWPOLYLINE
  5
11a
  8
heho_gebäude
100
AcDbEntity
100
AcDbPolyline
  6
CONTINUOUS
420
     0
 90
     4
 70
     1
 43
0.00026
 10
1620467.86512679257430136
 20
6898154.1761428052559495
 10
1620508.65994476131163538
 20
6898169.12579659558832645
 10
1620512.96747212461195886
 20
6898158.99043809343129396
 10
1620471.66588623053394258
 20
6898143.28063241578638554
  0
HATCH
  5
11b
330
6d
100
AcDbEntity
  8
heho_gebäude
 62
    24
100
AcDbHatch
 10
0.0
 20
0.0
 30
0.0
210
0.0
220
0.0
230
1.0
  2
SOLID
 70
     1
 71
     0
 91
     1
 92
     2
 72
     0
 73
     1
 93
     5
 10
1620467.86512679257430136
 20
6898154.1761428052559495
 10
1620508.65994476131163538
 20
6898169.12579659558832645
 10
1620512.96747212461195886
 20
6898158.99043809343129396
 10
1620471.66588623053394258
 20
6898143.28063241578638554
 10
1620467.86512679257430136
 20
6898154.1761428052559495
 97
     0
 75
     0
 76
     1
 98
     0
  0
LWPOLYLINE
  5
11c
  8
heho_gebäude
100
AcDbEntity
100
AcDbPolyline
  6
CONTINUOUS
420
     0
 90
     4
 70
     1
 43
0.00026
 10
1620422.38270551641471684
 20
6898123.89675928093492985
 10
1620408.95335550187155604
 20
6898118.76573403924703598
 10
1620403.88567625125870109
 20
6898131.6249701390042901
 10
1620417.31502626580186188
 20
6898136.69264938961714506
  0
LWPOLYLINE
  5
11d
  8
heho_gebäude
100
AcDbEntity
100
AcDbPolyline
  6
CONTINUOUS
420
     0
 90
     4
 70
     1
 43
0.00026
 10
1620422.38270551641471684
 20
6898123.89675928093492985
 10
1620408.95335550187155604
 20
6898118.76573403924703598
 10
1620403.88567625125870109
 20
6898131.6249701390042901
 10
1620417.31502626580186188
 20
6898136.69264938961714506
  0
HATCH
  5
11e
330
6d
100
AcDbEntity
  8
heho_gebäude
 62
    24
100
AcDbHatch
 10
0.0
 20
0.0
 30
0.0
210
0.0
220
0.0
230
1.0
  2
SOLID
 70
     1
 71
     0
 91
     1
 92
     2
 72
     0
 73
     1
 93
     5
 10
1620422.38270551641471684
 20
6898123.89675928093492985
 10
1620408.95335550187155604
 20
6898118.76573403924703598
 10
1620403.88567625125870109
 20
6898131.6249701390042901
 10
1620417.31502626580186188
 20
6898136.69264938961714506
 10
1620422.38270551641471684
 20
6898123.89675928093492985
 97
     0
 75
     0
 76
     1
 98
     0
  0
INSERT
  5
11f
100
AcDbEntity
100
AcDbBlockReference
  8
heho_geländehöhe
  2
symbolLayer9
 50
0.0
 10
1620418.31736274459399283
 20
6898274.04355614073574543
  0
INSERT
  5
120
100
AcDbEntity
100
AcDbBlockReference
  8
heho_geländehöhe
  2
symbolLayer7
 50
0.0
 10
1620425.16834628558717668
 20
6898255.78548600990325212
  0
INSERT
  5
121
100
AcDbEntity
100
AcDbBlockReference
  8
heho_geländehöhe
  2
symbolLayer4
 50
0.0
 10
1620418.20107872481457889
 20
6898248.81346999388188124
  0
INSERT
  5
122
100
AcDbEntity
100
AcDbBlockReference
  8
heho_geländehöhe
  2
symbolLayer1
 50
0.0
 10
1620427.703768728999421
 20
6898226.77064807154238224
  0
INSERT
  5
123
100
AcDbEntity
100
AcDbBlockReference
  8
heho_geländehöhe
  2
symbolLayer0
 50
0.0
 10
1620447.67852916731499135
 20
6898240.91567095369100571
  0
INSERT
  5
124
100
AcDbEntity
100
AcDbBlockReference
  8
heho_geländehöhe
  2
symbolLayer5
 50
0.0
 10
1620436.57062459923326969
 20
6898291.38514133729040623
  0
INSERT
  5
125
100
AcDbEntity
100
AcDbBlockReference
  8
heho_geländehöhe
  2
symbolLayer5
 50
0.0
 10
1620418.83058158471249044
 20
6898344.84282615967094898
  0
LWPOLYLINE
  5
126
  8
heho_grubber
100
AcDbEntity
100
AcDbPolyline
  6
CONTINUOUS
420
     0
 90
     6
 70
     1
 43
0.00026
 10
1620367.45358091033995152
 20
6898192.94111010059714317
 10
1620407.03126941085793078
 20
6898091.33485490549355745
 10
1620387.76629543257877231
 20
6898084.63758927397429943
 10
1620323.36156940623186529
 20
6898181.46710318699479103
 10
1620358.60406646318733692
 20
6898197.07590047642588615
 10
1620361.63390049710869789
 20
6898190.79012539144605398
  0
HATCH
  5
127
330
6d
100
AcDbEntity
  8
heho_grubber
420
8660641
100
AcDbHatch
 10
0.0
 20
0.0
 30
0.0
210
0.0
220
0.0
230
1.0
  2
SOLID
 70
     1
 71
     0
 91
     1
 92
     2
 72
     0
 73
     1
 93
     7
 10
1620367.45358091033995152
 20
6898192.94111010059714317
 10
1620407.03126941085793078
 20
6898091.33485490549355745
 10
1620387.76629543257877231
 20
6898084.63758927397429943
 10
1620323.36156940623186529
 20
6898181.46710318699479103
 10
1620358.60406646318733692
 20
6898197.07590047642588615
 10
1620361.63390049710869789
 20
6898190.79012539144605398
 10
1620367.45358091033995152
 20
6898192.94111010059714317
 97
     0
 75
     0
 76
     1
 98
     0
  0
LWPOLYLINE
  5
128
  8
heho_garten
100
AcDbEntity
100
AcDbPolyline
  6
CONTINUOUS
420
     0
 90
     6
 70
     1
 43
0.00026
 10
1620367.45358091033995152
 20
6898192.94111010059714317
 10
1620397.93682519043795764
 20
6898114.46905648335814476
 10
1620374.45100954594090581
 20
6898104.74840856716036797
 10
1620323.36156940623186529
 20
6898181.46710318699479103
 10
1620358.60406646318733692
 20
6898197.07590047642588615
 10
1620361.63390049710869789
 20
6898190.79012539144605398
  0
HATCH
  5
129
330
6d
100
AcDbEntity
  8
heho_garten
420
953858
100
AcDbHatch
 10
0.0
 20
0.0
 30
0.0
210
0.0
220
0.0
230
1.0
  2
SOLID
 70
     1
 71
     0
 91
     1
 92
     2
 72
     0
 73
     1
 93
     7
 10
1620367.45358091033995152
 20
6898192.94111010059714317
 10
1620397.93682519043795764
 20
6898114.46905648335814476
 10
1620374.45100954594090581
 20
6898104.74840856716036797
 10
1620323.36156940623186529
 20
6898181.46710318699479103
 10
1620358.60406646318733692
 20
6898197.07590047642588615
 10
1620361.63390049710869789
 20
6898190.79012539144605398
 10
1620367.45358091033995152
 20
6898192.94111010059714317
 97
     0
 75
     0
 76
     1
 98
     0
  0
LWPOLYLINE
  5
12a
  8
heho_wege
100
AcDbEntity
100
AcDbPolyline
  6
CONTINUOUS
420
8058112
 90
     5
 70
     0
 43
6.0
 10
1620464.52397838700562716
 20
6898171.22642610035836697
 10
1620462.66241658967919648
 20
6898154.1803776491433382
 10
1620466.0446668250951916
 20
6898138.20864042546600103
 10
1620465.48095845268107951
 20
6898134.63848739955574274
 10
1620403.09723188541829586
 20
6898110.5869301687926054
  0
LWPOLYLINE
  5
12b
  8
heho_wege
100
AcDbEntity
100
AcDbPolyline
  6
DOT
420
5614080
 90
     5
 70
     0
 43
5.2307699999999997
 10
1620464.52397838700562716
 20
6898171.22642610035836697
 10
1620462.66241658967919648
 20
6898154.1803776491433382
 10
1620466.0446668250951916
 20
6898138.20864042546600103
 10
1620465.48095845268107951
 20
6898134.63848739955574274
 10
1620403.09723188541829586
 20
6898110.5869301687926054
  0
LWPOLYLINE
  5
12c
  8
heho_wege
100
AcDbEntity
100
AcDbPolyline
  6
CONTINUOUS
420
8058112
 90
     2
 70
     0
 43
3.72727272727272751
 10
1620403.09723188541829586
 20
6898110.5869301687926054
 10
1620369.32892921124584973
 20
6898193.63424876611679792
  0
LWPOLYLINE
  5
12d
  8
heho_wege
100
AcDbEntity
100
AcDbPolyline
  6
DOT
420
5614080
 90
     2
 70
     0
 43
3.2494177272727276
 10
1620403.09723188541829586
 20
6898110.5869301687926054
 10
1620369.32892921124584973
 20
6898193.63424876611679792
  0
LWPOLYLINE
  5
12e
  8
heho_wege
100
AcDbEntity
100
AcDbPolyline
  6
CONTINUOUS
420
8058112
 90
     2
 70
     0
 43
1.0
 10
1620390.88728288095444441
 20
6898140.61519468668848276
 10
1620412.65678636985830963
 20
6898148.80166026391088963
  0
LWPOLYLINE
  5
12f
  8
heho_wege
100
AcDbEntity
100
AcDbPolyline
  6
DOT
420
5614080
 90
     2
 70
     0
 43
0.87179499999999999
 10
1620390.88728288095444441
 20
6898140.61519468668848276
 10
1620412.65678636985830963
 20
6898148.80166026391088963
  0
LWPOLYLINE
  5
130
  8
heho_wege
100
AcDbEntity
100
AcDbPolyline
  6
CONTINUOUS
420
8058112
 90
     2
 70
     0
 43
6.0
 10
1620399.19438122143037617
 20
6898143.73909572791308165
 10
1620397.56179788219742477
 20
6898147.84577559400349855
  0
LWPOLYLINE
  5
131
  8
heho_wege
100
AcDbEntity
100
AcDbPolyline
  6
DOT
420
5614080
 90
     2
 70
     0
 43
5.2307699999999997
 10
1620399.19438122143037617
 20
6898143.73909572791308165
 10
1620397.56179788219742477
 20
6898147.84577559400349855
  0
LWPOLYLINE
  5
132
  8
heho_wege
100
AcDbEntity
100
AcDbPolyline
  6
CONTINUOUS
420
8058112
 90
     2
 70
     0
 43
6.0
 10
1620412.65678636985830963
 20
6898148.80166026391088963
 10
1620411.57760878838598728
 20
6898152.97253763396292925
  0
LWPOLYLINE
  5
133
  8
heho_wege
100
AcDbEntity
100
AcDbPolyline
  6
DOT
420
5614080
 90
     2
 70
     0
 43
5.2307699999999997
 10
1620412.65678636985830963
 20
6898148.80166026391088963
 10
1620411.57760878838598728
 20
6898152.97253763396292925
  0
LWPOLYLINE
  5
134
  8
heho_wege
100
AcDbEntity
100
AcDbPolyline
  6
CONTINUOUS
420
8058112
 90
     2
 70
     0
 43
6.0
 10
1620417.47039923444390297
 20
6898122.01988754142075777
 10
1620419.41378307878039777
 20
6898116.87764870095998049
  0
LWPOLYLINE
  5
135
  8
heho_wege
100
AcDbEntity
100
AcDbPolyline
  6
DOT
420
5614080
 90
     2
 70
     0
 43
5.2307699999999997
 10
1620417.47039923444390297
 20
6898122.01988754142075777
 10
1620419.41378307878039777
 20
6898116.87764870095998049
  0
LWPOLYLINE
  5
136
  8
heho_wege
100
AcDbEntity
100
AcDbPolyline
  6
CONTINUOUS
420
8058112
 90
     2
 70
     0
 43
6.0
 10
1620437.33824610384181142
 20
6898130.13451162725687027
 10
1620439.79315034323371947
 20
6898124.73475415259599686
  0
LWPOLYLINE
  5
137
  8
heho_wege
100
AcDbEntity
100
AcDbPolyline
  6
DOT
420
5614080
 90
     2
 70
     0
 43
5.2307699999999997
 10
1620437.33824610384181142
 20
6898130.13451162725687027
 10
1620439.79315034323371947
 20
6898124.73475415259599686
  0
LWPOLYLINE
  5
138
  8
heho_wege
100
AcDbEntity
100
AcDbPolyline
  6
CONTINUOUS
420
8058112
 90
     2
 70
     0
 43
6.0
 10
1620452.91523192985914648
 20
6898135.95168762374669313
 10
1620455.13680354994721711
 20
6898130.65037948545068502
  0
LWPOLYLINE
  5
139
  8
heho_wege
100
AcDbEntity
100
AcDbPolyline
  6
DOT
420
5614080
 90
     2
 70
     0
 43
5.2307699999999997
 10
1620452.91523192985914648
 20
6898135.95168762374669313
 10
1620455.13680354994721711
 20
6898130.65037948545068502
  0
LWPOLYLINE
  5
13a
  8
heho_wege
100
AcDbEntity
100
AcDbPolyline
  6
CONTINUOUS
420
8058112
 90
     3
 70
     0
 43
3.72727272727272751
 10
1620353.2732772552408278
 20
6898205.56180490739643574
 10
1620344.02529201144352555
 20
6898203.90415368415415287
 10
1620307.90098046930506825
 20
6898186.05338855087757111
  0
LWPOLYLINE
  5
13b
  8
heho_wege
100
AcDbEntity
100
AcDbPolyline
  6
DOT
420
5614080
 90
     3
 70
     0
 43
3.2494177272727276
 10
1620353.2732772552408278
 20
6898205.56180490739643574
 10
1620344.02529201144352555
 20
6898203.90415368415415287
 10
1620307.90098046930506825
 20
6898186.05338855087757111
  0
LWPOLYLINE
  5
13c
  8
heho_wege
100
AcDbEntity
100
AcDbPolyline
  6
CONTINUOUS
420
8058112
 90
     3
 70
     0
 43
3.72727272727272751
 10
1620403.09723188541829586
 20
6898110.5869301687926054
 10
1620393.02094472548924387
 20
6898099.33625057432800531
 10
1620391.14191681682132185
 20
6898088.81369428616017103
  0
LWPOLYLINE
  5
13d
  8
heho_wege
100
AcDbEntity
100
AcDbPolyline
  6
DOT
420
5614080
 90
     3
 70
     0
 43
3.2494177272727276
 10
1620403.09723188541829586
 20
6898110.5869301687926054
 10
1620393.02094472548924387
 20
6898099.33625057432800531
 10
1620391.14191681682132185
 20
6898088.81369428616017103
  0
LWPOLYLINE
  5
13e
  8
heho_wege
100
AcDbEntity
100
AcDbPolyline
  6
CONTINUOUS
420
8058112
 90
     3
 70
     0
 43
3.72727272727272751
 10
1620412.03891025204211473
 20
6898295.09845944307744503
 10
1620416.35357026476413012
 20
6898301.04018367361277342
 10
1620426.55048967688344419
 20
6898304.57490141317248344
  0
LWPOLYLINE
  5
13f
  8
heho_wege
100
AcDbEntity
100
AcDbPolyline
  6
DOT
420
5614080
 90
     3
 70
     0
 43
3.2494177272727276
 10
1620412.03891025204211473
 20
6898295.09845944307744503
 10
1620416.35357026476413012
 20
6898301.04018367361277342
 10
1620426.55048967688344419
 20
6898304.57490141317248344
  0
LWPOLYLINE
  5
140
  8
heho_wege
100
AcDbEntity
100
AcDbPolyline
  6
CONTINUOUS
420
8058112
 90
     6
 70
     0
 43
3.72727272727272751
 10
1620408.14250063779763877
 20
6898297.84685017261654139
 10
1620413.13755926210433245
 20
6898304.73299380671232939
 10
1620418.19991870014928281
 20
6898309.59947353880852461
 10
1620416.43927967757917941
 20
6898316.41094970609992743
 10
1620418.05091546382755041
 20
6898320.1796522019430995
 10
1620420.93040761817246675
 20
6898321.15735603682696819
  0
LWPOLYLINE
  5
141
  8
heho_wege
100
AcDbEntity
100
AcDbPolyline
  6
DOT
420
5614080
 90
     6
 70
     0
 43
3.2494177272727276
 10
1620408.14250063779763877
 20
6898297.84685017261654139
 10
1620413.13755926210433245
 20
6898304.73299380671232939
 10
1620418.19991870014928281
 20
6898309.59947353880852461
 10
1620416.43927967757917941
 20
6898316.41094970609992743
 10
1620418.05091546382755041
 20
6898320.1796522019430995
 10
1620420.93040761817246675
 20
6898321.15735603682696819
  0
LWPOLYLINE
  5
142
  8
heho_wege
100
AcDbEntity
100
AcDbPolyline
  6
CONTINUOUS
420
8058112
 90
     2
 70
     0
 43
1.0
 10
1620426.53222216572612524
 20
6898284.87538537010550499
 10
1620431.56906127091497183
 20
6898289.76724649593234062
  0
LWPOLYLINE
  5
143
  8
heho_wege
100
AcDbEntity
100
AcDbPolyline
  6
DOT
420
5614080
 90
     2
 70
     0
 43
0.87179499999999999
 10
1620426.53222216572612524
 20
6898284.87538537010550499
 10
1620431.56906127091497183
 20
6898289.76724649593234062
  0
LWPOLYLINE
  5
144
  8
heho_wege
100
AcDbEntity
100
AcDbPolyline
  6
CONTINUOUS
420
8058112
 90
    12
 70
     0
 43
3.72727272727272751
 10
1620430.6510198125615716
 20
6898281.26954836677759886
 10
1620434.65875029098242521
 20
6898283.38834033254534006
 10
1620438.61167133855633438
 20
6898284.78463729191571474
 10
1620443.80499111348763108
 20
6898286.11532343551516533
 10
1620451.20361923845484853
 20
6898288.07702338136732578
 10
1620461.74639047984965146
 20
6898292.03056259732693434
 10
1620468.13508536899462342
 20
6898295.41281283274292946
 10
1620470.01411327812820673
 20
6898297.66764632239937782
 10
1620470.20201606908813119
 20
6898299.54667423106729984
 10
1620469.26250211475417018
 20
6898306.49907749239355326
 10
1620467.57137699751183391
 20
6898314.39099470712244511
 10
1620460.43107094499282539
 20
6898325.28935657721012831
  0
LWPOLYLINE
  5
145
  8
heho_wege
100
AcDbEntity
100
AcDbPolyline
  6
DOT
420
5614080
 90
    12
 70
     0
 43
3.2494177272727276
 10
1620430.6510198125615716
 20
6898281.26954836677759886
 10
1620434.65875029098242521
 20
6898283.38834033254534006
 10
1620438.61167133855633438
 20
6898284.78463729191571474
 10
1620443.80499111348763108
 20
6898286.11532343551516533
 10
1620451.20361923845484853
 20
6898288.07702338136732578
 10
1620461.74639047984965146
 20
6898292.03056259732693434
 10
1620468.13508536899462342
 20
6898295.41281283274292946
 10
1620470.01411327812820673
 20
6898297.66764632239937782
 10
1620470.20201606908813119
 20
6898299.54667423106729984
 10
1620469.26250211475417018
 20
6898306.49907749239355326
 10
1620467.57137699751183391
 20
6898314.39099470712244511
 10
1620460.43107094499282539
 20
6898325.28935657721012831
  0
LWPOLYLINE
  5
146
  8
heho_wege
100
AcDbEntity
100
AcDbPolyline
  6
CONTINUOUS
420
8058112
 90
     5
 70
     0
 43
1.0
 10
1620443.14326791907660663
 20
6898248.49487316887825727
 10
1620447.55972977145574987
 20
6898253.04073349665850401
 10
1620451.69359117024578154
 20
6898261.4963590856641531
 10
1620454.88793861540034413
 20
6898273.80399188678711653
 10
1620457.63826919160783291
 20
6898290.49001711420714855
  0
LWPOLYLINE
  5
147
  8
heho_wege
100
AcDbEntity
100
AcDbPolyline
  6
DOT
420
5614080
 90
     5
 70
     0
 43
0.87179499999999999
 10
1620443.14326791907660663
 20
6898248.49487316887825727
 10
1620447.55972977145574987
 20
6898253.04073349665850401
 10
1620451.69359117024578154
 20
6898261.4963590856641531
 10
1620454.88793861540034413
 20
6898273.80399188678711653
 10
1620457.63826919160783291
 20
6898290.49001711420714855
  0
LWPOLYLINE
  5
148
  8
heho_wege
100
AcDbEntity
100
AcDbPolyline
  6
CONTINUOUS
420
8058112
 90
     4
 70
     0
 43
3.72727272727272751
 10
1620315.7628952891100198
 20
6898189.93833995796740055
 10
1620319.4545371166896075
 20
6898179.26282960176467896
 10
1620370.81369423866271973
 20
6898102.13704449962824583
 10
1620378.82224077265709639
 20
6898094.30259680282324553
  0
LWPOLYLINE
  5
149
  8
heho_wege
100
AcDbEntity
100
AcDbPolyline
  6
DOT
420
5614080
 90
     4
 70
     0
 43
3.2494177272727276
 10
1620315.7628952891100198
 20
6898189.93833995796740055
 10
1620319.4545371166896075
 20
6898179.26282960176467896
 10
1620370.81369423866271973
 20
6898102.13704449962824583
 10
1620378.82224077265709639
 20
6898094.30259680282324553
  0
LWPOLYLINE
  5
14a
  8
heho_wege
100
AcDbEntity
100
AcDbPolyline
  6
CONTINUOUS
420
8058112
 90
     6
 70
     0
 43
1.0
 10
1620371.76619862555526197
 20
6898278.99376478418707848
 10
1620366.28712445800192654
 20
6898286.85591130144894123
 10
1620360.01956630079075694
 20
6898293.29756829608231783
 10
1620355.73367309989407659
 20
6898297.96441385615617037
 10
1620352.73304950399324298
 20
6898307.24078428000211716
 10
1620354.99817867646925151
 20
6898328.5920320013538003
  0
LWPOLYLINE
  5
14b
  8
heho_wege
100
AcDbEntity
100
AcDbPolyline
  6
DOT
420
5614080
 90
     6
 70
     0
 43
0.87179499999999999
 10
1620371.76619862555526197
 20
6898278.99376478418707848
 10
1620366.28712445800192654
 20
6898286.85591130144894123
 10
1620360.01956630079075694
 20
6898293.29756829608231783
 10
1620355.73367309989407659
 20
6898297.96441385615617037
 10
1620352.73304950399324298
 20
6898307.24078428000211716
 10
1620354.99817867646925151
 20
6898328.5920320013538003
  0
LWPOLYLINE
  5
14c
  8
heho_wege
100
AcDbEntity
100
AcDbPolyline
  6
CONTINUOUS
420
8058112
 90
     5
 70
     0
 43
1.0
 10
1620466.0446668250951916
 20
6898138.20864042546600103
 10
1620474.56681197136640549
 20
6898129.99398538842797279
 10
1620485.84097942267544568
 20
6898122.85367933660745621
 10
1620495.23611896531656384
 20
6898120.22304026409983635
 10
1620516.28123154072090983
 20
6898117.59240119252353907
  0
LWPOLYLINE
  5
14d
  8
heho_wege
100
AcDbEntity
100
AcDbPolyline
  6
DOT
420
5614080
 90
     5
 70
     0
 43
0.87179499999999999
 10
1620466.0446668250951916
 20
6898138.20864042546600103
 10
1620474.56681197136640549
 20
6898129.99398538842797279
 10
1620485.84097942267544568
 20
6898122.85367933660745621
 10
1620495.23611896531656384
 20
6898120.22304026409983635
 10
1620516.28123154072090983
 20
6898117.59240119252353907
  0
LWPOLYLINE
  5
14e
  8
heho_wege
100
AcDbEntity
100
AcDbPolyline
  6
CONTINUOUS
420
8058112
 90
     5
 70
     0
 43
1.0
 10
1620485.84097942267544568
 20
6898122.85367933660745621
 10
1620467.80231150076724589
 20
6898122.47787375468760729
 10
1620452.81706393067725003
 20
6898121.06860282272100449
 10
1620436.75137531268410385
 20
6898118.81376933213323355
 10
1620419.41378307878039777
 20
6898116.87764870095998049
  0
LWPOLYLINE
  5
14f
  8
heho_wege
100
AcDbEntity
100
AcDbPolyline
  6
DOT
420
5614080
 90
     5
 70
     0
 43
0.87179499999999999
 10
1620485.84097942267544568
 20
6898122.85367933660745621
 10
1620467.80231150076724589
 20
6898122.47787375468760729
 10
1620452.81706393067725003
 20
6898121.06860282272100449
 10
1620436.75137531268410385
 20
6898118.81376933213323355
 10
1620419.41378307878039777
 20
6898116.87764870095998049
  0
LWPOLYLINE
  5
150
  8
heho_wege
100
AcDbEntity
100
AcDbPolyline
  6
CONTINUOUS
420
8058112
 90
     3
 70
     0
 43
1.0
 10
1620382.79980325791984797
 20
6898283.14588442165404558
 10
1620380.85029503353871405
 20
6898291.59038552548736334
 10
1620377.65594758908264339
 20
6898294.40892738755792379
  0
LWPOLYLINE
  5
151
  8
heho_wege
100
AcDbEntity
100
AcDbPolyline
  6
DOT
420
5614080
 90
     3
 70
     0
 43
0.87179499999999999
 10
1620382.79980325791984797
 20
6898283.14588442165404558
 10
1620380.85029503353871405
 20
6898291.59038552548736334
 10
1620377.65594758908264339
 20
6898294.40892738755792379
  0
LWPOLYLINE
  5
152
  8
heho_wege
100
AcDbEntity
100
AcDbPolyline
  6
CONTINUOUS
420
8058112
 90
     4
 70
     0
 43
1.0
 10
1620366.28712445800192654
 20
6898286.85591130144894123
 10
1620365.81807176535949111
 20
6898294.22102459706366062
 10
1620367.69709967379458249
 20
6898297.97908041439950466
 10
1620372.39466944523155689
 20
6898297.22746925055980682
  0
LWPOLYLINE
  5
153
  8
heho_wege
100
AcDbEntity
100
AcDbPolyline
  6
DOT
420
5614080
 90
     4
 70
     0
 43
0.87179499999999999
 10
1620366.28712445800192654
 20
6898286.85591130144894123
 10
1620365.81807176535949111
 20
6898294.22102459706366062
 10
1620367.69709967379458249
 20
6898297.97908041439950466
 10
1620372.39466944523155689
 20
6898297.22746925055980682
  0
LWPOLYLINE
  5
154
  8
heho_wege
100
AcDbEntity
100
AcDbPolyline
  6
CONTINUOUS
420
8058112
 90
     3
 70
     0
 43
6.0
 10
1620354.2224195918533951
 20
6898329.13776893727481365
 10
1620348.15520942560397089
 20
6898288.20813528914004564
 10
1620343.38100502896122634
 20
6898260.01092457678169012
  0
LWPOLYLINE
  5
155
  8
heho_wege
100
AcDbEntity
100
AcDbPolyline
  6
DOT
420
5614080
 90
     3
 70
     0
 43
5.2307699999999997
 10
1620354.2224195918533951
 20
6898329.13776893727481365
 10
1620348.15520942560397089
 20
6898288.20813528914004564
 10
1620343.38100502896122634
 20
6898260.01092457678169012
  0
LWPOLYLINE
  5
156
  8
heho_wege
100
AcDbEntity
100
AcDbPolyline
  6
CONTINUOUS
420
8058112
 90
     5
 70
     0
 43
3.72727272727272751
 10
1620404.41813712101429701
 20
6898300.47388561628758907
 10
1620409.61684320727363229
 20
6898307.99701110925525427
 10
1620408.54197341459803283
 20
6898314.44622986484318972
 10
1620413.58559321146458387
 20
6898321.22617778833955526
 10
1620419.89614609419368207
 20
6898324.20901873614639044
  0
LWPOLYLINE
  5
157
  8
heho_wege
100
AcDbEntity
100
AcDbPolyline
  6
DOT
420
5614080
 90
     5
 70
     0
 43
3.2494177272727276
 10
1620404.41813712101429701
 20
6898300.47388561628758907
 10
1620409.61684320727363229
 20
6898307.99701110925525427
 10
1620408.54197341459803283
 20
6898314.44622986484318972
 10
1620413.58559321146458387
 20
6898321.22617778833955526
 10
1620419.89614609419368207
 20
6898324.20901873614639044
  0
LWPOLYLINE
  5
158
  8
heho_wege
100
AcDbEntity
100
AcDbPolyline
  6
CONTINUOUS
420
8058112
 90
     4
 70
     0
 43
3.72727272727272751
 10
1620430.23760835384018719
 20
6898282.26173586770892143
 10
1620433.06453560292720795
 20
6898285.40386949293315411
 10
1620433.0488062733784318
 20
6898287.80144941434264183
 10
1620432.3132018968462944
 20
6898290.0152933718636632
  0
LWPOLYLINE
  5
159
  8
heho_wege
100
AcDbEntity
100
AcDbPolyline
  6
DOT
420
5614080
 90
     4
 70
     0
 43
3.2494177272727276
 10
1620430.23760835384018719
 20
6898282.26173586770892143
 10
1620433.06453560292720795
 20
6898285.40386949293315411
 10
1620433.0488062733784318
 20
6898287.80144941434264183
 10
1620432.3132018968462944
 20
6898290.0152933718636632
  0
INSERT
  5
15a
100
AcDbEntity
100
AcDbBlockReference
  8
heho_waldgarten
  2
symbolLayer10
 50
0.0
 10
1620454.23051156965084374
 20
6898227.03260026313364506
  0
INSERT
  5
15b
100
AcDbEntity
100
AcDbBlockReference
  8
heho_waldgarten
  2
symbolLayer10
 50
0.0
 10
1620457.17290697759017348
 20
6898218.28493823949247599
  0
INSERT
  5
15c
100
AcDbEntity
100
AcDbBlockReference
  8
heho_waldgarten
  2
symbolLayer10
 50
0.0
 10
1620447.35166825191117823
 20
6898281.86453631334006786
  0
INSERT
  5
15d
100
AcDbEntity
100
AcDbBlockReference
  8
heho_waldgarten
  2
symbolLayer10
 50
0.0
 10
1620460.87078228872269392
 20
6898285.9202705230563879
  0
INSERT
  5
15e
100
AcDbEntity
100
AcDbBlockReference
  8
heho_waldgarten
  2
symbolLayer10
 50
0.0
 10
1620450.37358785979449749
 20
6898292.67982754483819008
  0
INSERT
  5
15f
100
AcDbEntity
100
AcDbBlockReference
  8
heho_waldgarten
  2
symbolLayer15
 50
0.0
 10
1620441.46687743533402681
 20
6898290.13505313731729984
  0
INSERT
  5
160
100
AcDbEntity
100
AcDbBlockReference
  8
heho_waldgarten
  2
symbolLayer10
 50
0.0
 10
1620465.64223430119454861
 20
6898277.57022950332611799
  0
INSERT
  5
161
100
AcDbEntity
100
AcDbBlockReference
  8
heho_waldgarten
  2
symbolLayer10
 50
0.0
 10
1620466.75557310436852276
 20
6898301.90463476907461882
  0
INSERT
  5
162
100
AcDbEntity
100
AcDbBlockReference
  8
heho_waldgarten
  2
symbolLayer14
 50
0.0
 10
1620483.61470355023629963
 20
6898305.72179638035595417
  0
INSERT
  5
163
100
AcDbEntity
100
AcDbBlockReference
  8
heho_waldgarten
  2
symbolLayer10
 50
0.0
 10
1620473.9127511247061193
 20
6898312.5608775969594717
  0
INSERT
  5
164
100
AcDbEntity
100
AcDbBlockReference
  8
heho_waldgarten
  2
symbolLayer13
 50
0.0
 10
1620463.25650829542428255
 20
6898313.03802279848605394
  0
INSERT
  5
165
100
AcDbEntity
100
AcDbBlockReference
  8
heho_waldgarten
  2
symbolLayer10
 50
0.0
 10
1620478.36610633623786271
 20
6898323.37616882659494877
  0
INSERT
  5
166
100
AcDbEntity
100
AcDbBlockReference
  8
heho_waldgarten
  2
symbolLayer13
 50
0.0
 10
1620478.52515473705716431
 20
6898332.91907285246998072
  0
INSERT
  5
167
100
AcDbEntity
100
AcDbBlockReference
  8
heho_waldgarten
  2
symbolLayer20
 50
0.0
 10
1620476.77562233246862888
 20
6898348.82391289621591568
  0
INSERT
  5
168
100
AcDbEntity
100
AcDbBlockReference
  8
heho_waldgarten
  2
symbolLayer14
 50
0.0
 10
1620471.20892831706441939
 20
6898339.7581540709361434
  0
INSERT
  5
169
100
AcDbEntity
100
AcDbBlockReference
  8
heho_waldgarten
  2
symbolLayer13
 50
0.0
 10
1620467.70986350788734853
 20
6898352.80012290738523006
  0
INSERT
  5
16a
100
AcDbEntity
100
AcDbBlockReference
  8
heho_waldgarten
  2
symbolLayer13
 50
0.0
 10
1620460.51364456606097519
 20
6898357.39243414625525475
  0
INSERT
  5
16b
100
AcDbEntity
100
AcDbBlockReference
  8
heho_waldgarten
  2
symbolLayer17
 50
0.0
 10
1620454.03170107048936188
 20
6898343.41626728139817715
  0
INSERT
  5
16c
100
AcDbEntity
100
AcDbBlockReference
  8
heho_waldgarten
  2
symbolLayer17
 50
0.0
 10
1620450.60785854584537446
 20
6898354.13567194063216448
  0
INSERT
  5
16d
100
AcDbEntity
100
AcDbBlockReference
  8
heho_waldgarten
  2
symbolLayer20
 50
0.0
 10
1620453.25483570597134531
 20
6898365.70141997933387756
  0
INSERT
  5
16e
100
AcDbEntity
100
AcDbBlockReference
  8
heho_waldgarten
  2
symbolLayer13
 50
0.0
 10
1620465.9603311032988131
 20
6898361.8658817308023572
  0
INSERT
  5
16f
100
AcDbEntity
100
AcDbBlockReference
  8
heho_waldgarten
  2
symbolLayer14
 50
0.0
 10
1620448.5465455234516412
 20
6898382.19192415941506624
  0
INSERT
  5
170
100
AcDbEntity
100
AcDbBlockReference
  8
heho_waldgarten
  2
symbolLayer10
 50
0.0
 10
1620449.84305363544262946
 20
6898373.50799587834626436
  0
INSERT
  5
171
100
AcDbEntity
100
AcDbBlockReference
  8
heho_waldgarten
  2
symbolLayer22
 50
0.0
 10
1620441.14626846206374466
 20
6898366.38665834628045559
  0
INSERT
  5
172
100
AcDbEntity
100
AcDbBlockReference
  8
heho_waldgarten
  2
symbolLayer10
 50
0.0
 10
1620440.73285700334236026
 20
6898376.55658023152500391
  0
INSERT
  5
173
100
AcDbEntity
100
AcDbBlockReference
  8
heho_waldgarten
  2
symbolLayer21
 50
0.0
 10
1620433.3741330374032259
 20
6898381.35215315315872431
  0
INSERT
  5
174
100
AcDbEntity
100
AcDbBlockReference
  8
heho_waldgarten
  2
symbolLayer18
 50
0.0
 10
1620432.71267470344901085
 20
6898374.15879377070814371
  0
INSERT
  5
175
100
AcDbEntity
100
AcDbBlockReference
  8
heho_waldgarten
  2
symbolLayer14
 50
0.0
 10
1620388.31228403421118855
 20
6898353.28151510190218687
  0
INSERT
  5
176
100
AcDbEntity
100
AcDbBlockReference
  8
heho_waldgarten
  2
symbolLayer12
 50
0.0
 10
1620383.68207569606602192
 20
6898344.93060363549739122
  0
INSERT
  5
177
100
AcDbEntity
100
AcDbBlockReference
  8
heho_waldgarten
  2
symbolLayer11
 50
0.0
 10
1620391.95030487119220197
 20
6898341.70599425677210093
  0
INSERT
  5
178
100
AcDbEntity
100
AcDbBlockReference
  8
heho_waldgarten
  2
symbolLayer17
 50
0.0
 10
1620388.39496632595546544
 20
6898333.60312966536730528
  0
INSERT
  5
179
100
AcDbEntity
100
AcDbBlockReference
  8
heho_waldgarten
  2
symbolLayer10
 50
0.0
 10
1620381.11892465176060796
 20
6898327.56732236780226231
  0
INSERT
  5
17a
100
AcDbEntity
100
AcDbBlockReference
  8
heho_waldgarten
  2
symbolLayer11
 50
0.0
 10
1620372.1892371429130435
 20
6898329.88242653850466013
  0
INSERT
  5
17b
100
AcDbEntity
100
AcDbBlockReference
  8
heho_waldgarten
  2
symbolLayer17
 50
0.0
 10
1620364.25173713499680161
 20
6898345.42669738736003637
  0
INSERT
  5
17c
100
AcDbEntity
100
AcDbBlockReference
  8
heho_waldgarten
  2
symbolLayer17
 50
0.0
 10
1620374.17361214500851929
 20
6898347.74180155619978905
  0
INSERT
  5
17d
100
AcDbEntity
100
AcDbBlockReference
  8
heho_waldgarten
  2
symbolLayer18
 50
0.0
 10
1620377.97699756571091712
 20
6898337.4891973789781332
  0
INSERT
  5
17e
100
AcDbEntity
100
AcDbBlockReference
  8
heho_waldgarten
  2
symbolLayer19
 50
0.0
 10
1620344.40798711497336626
 20
6898328.06341611873358488
  0
INSERT
  5
17f
100
AcDbEntity
100
AcDbBlockReference
  8
heho_waldgarten
  2
symbolLayer19
 50
0.0
 10
1620338.124132941942662
 20
6898337.81992654595524073
  0
INSERT
  5
180
100
AcDbEntity
100
AcDbBlockReference
  8
heho_waldgarten
  2
symbolLayer18
 50
0.0
 10
1620331.34418501821346581
 20
6898333.68581195827573538
  0
INSERT
  5
181
100
AcDbEntity
100
AcDbBlockReference
  8
heho_waldgarten
  2
symbolLayer22
 50
0.0
 10
1620334.32074752124026418
 20
6898324.26003069896250963
  0
INSERT
  5
182
100
AcDbEntity
100
AcDbBlockReference
  8
heho_waldgarten
  2
symbolLayer16
 50
0.0
 10
1620413.19965385156683624
 20
6898312.18841610290110111
  0
LWPOLYLINE
  5
183
  8
heho_teich
100
AcDbEntity
100
AcDbPolyline
  6
CONTINUOUS
420
     0
 90
    11
 70
     1
 43
0.00026
 10
1620424.71861762297339737
 20
6898084.02486799191683531
 10
1620432.6920092566870153
 20
6898087.00252813566476107
 10
1620439.39809011062607169
 20
6898087.98286657501012087
 10
1620442.05235505802556872
 20
6898085.22948590852320194
 10
1620439.78395619965158403
 20
6898082.13196040317416191
 10
1620432.23307548323646188
 20
6898079.82184029277414083
 10
1620431.70637242193333805
 20
6898076.28105423133820295
 10
1620432.12358494335785508
 20
6898072.92790281865745783
 10
1620429.75607036473229527
 20
6898070.55001342017203569
 10
1620426.29872680711559951
 20
6898073.41288462653756142
 10
1620424.40052082180045545
 20
6898077.93930752296000719
  0
HATCH
  5
184
330
6d
100
AcDbEntity
  8
heho_teich
420
 31425
100
AcDbHatch
 10
0.0
 20
0.0
 30
0.0
210
0.0
220
0.0
230
1.0
  2
SOLID
 70
     1
 71
     0
 91
     1
 92
     2
 72
     0
 73
     1
 93
    12
 10
1620424.71861762297339737
 20
6898084.02486799191683531
 10
1620432.6920092566870153
 20
6898087.00252813566476107
 10
1620439.39809011062607169
 20
6898087.98286657501012087
 10
1620442.05235505802556872
 20
6898085.22948590852320194
 10
1620439.78395619965158403
 20
6898082.13196040317416191
 10
1620432.23307548323646188
 20
6898079.82184029277414083
 10
1620431.70637242193333805
 20
6898076.28105423133820295
 10
1620432.12358494335785508
 20
6898072.92790281865745783
 10
1620429.75607036473229527
 20
6898070.55001342017203569
 10
1620426.29872680711559951
 20
6898073.41288462653756142
 10
1620424.40052082180045545
 20
6898077.93930752296000719
 10
1620424.71861762297339737
 20
6898084.02486799191683531
 97
     0
 75
     0
 76
     1
 98
     0
  0
MTEXT
  5
185
100
AcDbEntity
100
AcDbMText
  8
heho_waldgarten
420
     0
 10
1620467.72809997946023941
 20
6898363.6331214401870966
  1
\fNoto Sans|i0|b0;\H0.00264583;Clapps\~Liebling\~Sommerbirne
 50
0.0
 41
0.04835843406296139
 71
     7
  7
STANDARD
  0
MTEXT
  5
186
100
AcDbEntity
100
AcDbMText
  8
heho_waldgarten
420
     0
 10
1620452.37562742200680077
 20
6898355.90291165001690388
  1
\fNoto Sans|i0|b0;\H0.00264583;Gelbfleischiger\~Tellerpfirsich
 50
0.0
 41
0.04659853995139791
 71
     7
  7
STANDARD
  0
MTEXT
  5
187
100
AcDbEntity
100
AcDbMText
  8
heho_waldgarten
420
     0
 10
1620375.9413810211699456
 20
6898349.50904126558452845
  1
\fNoto Sans|i0|b0;\H0.00264583;Piatta\~Fortwo\~Tellerpfirsich
 50
0.0
 41
0.04393368736903047
 71
     7
  7
STANDARD
  0
MTEXT
  5
188
100
AcDbEntity
100
AcDbMText
  8
heho_waldgarten
420
     0
 10
1620452.1413567359559238
 20
6898294.44706725422292948
  1
\fNoto Sans|i0|b0;\H0.00264583;Süßer\~Winterapfel\~Merkur
 50
0.0
 41
0.04267402155791139
 71
     7
  7
STANDARD
  0
MTEXT
  5
189
100
AcDbEntity
100
AcDbMText
  8
heho_waldgarten
420
     0
 10
1620443.23464631149545312
 20
6898291.90268972236663103
  1
\fNoto Sans|i0|b0;\H0.00264583;Dürkheimer\~Krachmandel
 50
0.0
 41
0.04239207469766091
 71
     7
  7
STANDARD
  0
MTEXT
  5
18a
100
AcDbEntity
100
AcDbMText
  8
heho_waldgarten
420
     0
 10
1620467.41000317735597491
 20
6898279.33746921271085739
  1
\fNoto Sans|i0|b0;\H0.00264583;Santana\~Allergikerapfel
 50
0.0
 41
0.03819015697392795
 71
     7
  7
STANDARD
  0
MTEXT
  5
18b
100
AcDbEntity
100
AcDbMText
  8
heho_waldgarten
420
     0
 10
1620455.79946994665078819
 20
6898345.18350699078291655
  1
\fNoto Sans|i0|b0;\H0.00264583;Roter\~Weinbergpfirsich
 50
0.0
 41
0.03791730517368554
 71
     7
  7
STANDARD
  0
MTEXT
  5
18c
100
AcDbEntity
100
AcDbMText
  8
heho_waldgarten
420
     0
 10
1620333.11195389437489212
 20
6898335.45305166766047478
  1
\fNoto Sans|i0|b0;\H0.00264583;Kirkes\~Riesenpflaume
 50
0.0
 41
0.03533430813139082
 71
     7
  7
STANDARD
  0
MTEXT
  5
18d
100
AcDbEntity
100
AcDbMText
  8
heho_waldgarten
420
     0
 10
1620336.08851639740169048
 20
6898326.02766728401184082
  1
\fNoto Sans|i0|b0;\H0.00264583;Bühler\~Frühzwetsche
 50
0.0
 41
0.03443844472059494
 71
     7
  7
STANDARD
  0
MTEXT
  5
18e
100
AcDbEntity
100
AcDbMText
  8
heho_waldgarten
420
     0
 10
1620455.02260458213277161
 20
6898367.46865968871861696
  1
\fNoto Sans|i0|b0;\H0.00264583;Ungarische\~Traubige
 50
0.0
 41
0.03417923551036466
 71
     7
  7
STANDARD
  0
MTEXT
  5
18f
100
AcDbEntity
100
AcDbMText
  8
heho_waldgarten
420
     0
 10
1620458.94067585375159979
 20
6898220.05231024138629436
  1
\fNoto Sans|i0|b0;\H0.00238125;Cox\~Orange\~Renette
 50
0.0
 41
0.0331151134894193
 71
     7
  7
STANDARD
  0
MTEXT
  5
190
100
AcDbEntity
100
AcDbMText
  8
heho_waldgarten
420
     0
 10
1620462.63855116488412023
 20
6898287.68790710810571909
  1
\fNoto Sans|i0|b0;\H0.00264583;Roter\~Gravensteiner
 50
0.0
 41
0.03305599559936678
 71
     7
  7
STANDARD
  0
MTEXT
  5
191
100
AcDbEntity
100
AcDbMText
  8
heho_waldgarten
420
     0
 10
1620414.96742272772826254
 20
6898313.9560526879504323
  1
\fNoto Sans|i0|b0;\H0.00264583;Morus\~Alba\~Pendula
 50
0.0
 41
0.03297414005929406
 71
     7
  7
STANDARD
  0
MTEXT
  5
192
100
AcDbEntity
100
AcDbMText
  8
heho_waldgarten
420
     0
 10
1620373.9570060190744698
 20
6898331.64966624788939953
  1
\fNoto Sans|i0|b0;\H0.00264583;Ungarische\~Beste
 50
0.0
 41
0.0286585340854601
 71
     7
  7
STANDARD
  0
MTEXT
  5
193
100
AcDbEntity
100
AcDbMText
  8
heho_waldgarten
420
     0
 10
1620390.08005291037261486
 20
6898355.04915168695151806
  1
\fNoto Sans|i0|b0;\H0.00264583;Dönissens\~Gelbe
 50
0.0
 41
0.02727608496423194
 71
     7
  7
STANDARD
  0
MTEXT
  5
194
100
AcDbEntity
100
AcDbMText
  8
heho_waldgarten
420
     0
 10
1620451.61082251160405576
 20
6898375.27523558773100376
  1
\fNoto Sans|i0|b0;\H0.00264583;Weißer\~Klarapfel
 50
0.0
 41
0.02726244237421982
 71
     7
  7
STANDARD
  0
MTEXT
  5
195
100
AcDbEntity
100
AcDbMText
  8
heho_waldgarten
420
     0
 10
1620472.97669719322584569
 20
6898341.52579065598547459
  1
\fNoto Sans|i0|b0;\H0.00264583;Große\~Schwarze
 50
0.0
 41
0.02666216841368654
 71
     7
  7
STANDARD
  0
MTEXT
  5
196
100
AcDbEntity
100
AcDbMText
  8
heho_waldgarten
420
     0
 10
1620462.2814134422224015
 20
6898359.16020302288234234
  1
\fNoto Sans|i0|b0;\H0.00238125;Ananas-Renette
 50
0.0
 41
0.02599368150309266
 71
     7
  7
STANDARD
  0
MTEXT
  5
197
100
AcDbEntity
100
AcDbMText
  8
heho_waldgarten
420
     0
 10
1620434.48044357961043715
 20
6898375.92603348009288311
  1
\fNoto Sans|i0|b0;\H0.00264583;Königin\~Viktoria
 50
0.0
 41
0.02595730126306034
 71
     7
  7
STANDARD
  0
MTEXT
  5
198
100
AcDbEntity
100
AcDbMText
  8
heho_waldgarten
420
     0
 10
1620480.29292361321859062
 20
6898334.6867094375193119
  1
\fNoto Sans|i0|b0;\H0.00264583;Williams\~Christ
 50
0.0
 41
0.02427471516156553
 71
     7
  7
STANDARD
  0
MTEXT
  5
199
100
AcDbEntity
100
AcDbMText
  8
heho_waldgarten
420
     0
 10
1620469.47763238404877484
 20
6898354.56736261676996946
  1
\fNoto Sans|i0|b0;\H0.00264583;Bunte\~Julibirne
 50
0.0
 41
0.02423378739152918
 71
     7
  7
STANDARD
  0
MTEXT
  5
19a
100
AcDbEntity
100
AcDbMText
  8
heho_waldgarten
420
     0
 10
1620478.54339120863005519
 20
6898350.59154948126524687
  1
\fNoto Sans|i0|b0;\H0.00264583;Morellenfeuer
 50
0.0
 41
0.02334701904074138
 71
     7
  7
STANDARD
  0
MTEXT
  5
19b
100
AcDbEntity
100
AcDbMText
  8
heho_waldgarten
420
     0
 10
1620475.6805200008675456
 20
6898314.32851418200880289
  1
\fNoto Sans|i0|b0;\H0.00264583;Stark\~Earliest
 50
0.0
 41
0.02137793854899206
 71
     7
  7
STANDARD
  0
MTEXT
  5
19c
100
AcDbEntity
100
AcDbMText
  8
heho_waldgarten
420
     0
 10
1620346.17575599113479257
 20
6898329.83105270378291607
  1
\fNoto Sans|i0|b0;\H0.00264583;Graf\~Althans
 50
0.0
 41
0.02036838688809517
 71
     7
  7
STANDARD
  0
MTEXT
  5
19d
100
AcDbEntity
100
AcDbMText
  8
heho_waldgarten
420
     0
 10
1620465.02427717158570886
 20
6898314.80565938353538513
  1
\fNoto Sans|i0|b0;\H0.00264583;Conference
 50
0.0
 41
0.01884951186674581
 71
     7
  7
STANDARD
  0
MTEXT
  5
19e
100
AcDbEntity
100
AcDbMText
  8
heho_waldgarten
420
     0
 10
1620442.50062587950378656
 20
6898378.3242168165743351
  1
\fNoto Sans|i0|b0;\H0.00264583;Rote\~Wolke
 50
0.0
 41
0.01850389958643877
 71
     7
  7
STANDARD
  0
MTEXT
  5
19f
100
AcDbEntity
100
AcDbMText
  8
heho_waldgarten
420
     0
 10
1620390.16273520211689174
 20
6898335.37076625041663647
  1
\fNoto Sans|i0|b0;\H0.00264583;Red\~Haven
 50
0.0
 41
0.01763077382566309
 71
     7
  7
STANDARD
  0
MTEXT
  5
1a0
100
AcDbEntity
100
AcDbMText
  8
heho_waldgarten
420
     0
 10
1620366.01950601115822792
 20
6898347.19406938925385475
  1
\fNoto Sans|i0|b0;\H0.00238125;Honeysun
 50
0.0
 41
0.01658029439472985
 71
     7
  7
STANDARD
  0
MTEXT
  5
1a1
100
AcDbEntity
100
AcDbMText
  8
heho_waldgarten
420
     0
 10
1620449.11943712807260454
 20
6898283.63217289838939905
  1
\fNoto Sans|i0|b0;\H0.00264583;Rubinette
 50
0.0
 41
0.01598456796420061
 71
     7
  7
STANDARD
  0
MTEXT
  5
1a2
100
AcDbEntity
100
AcDbMText
  8
heho_waldgarten
420
     0
 10
1620442.91403733822517097
 20
6898368.15429493132978678
  1
\fNoto Sans|i0|b0;\H0.00264583;President
 50
0.0
 41
0.01562076556387741
 71
     7
  7
STANDARD
  0
MTEXT
  5
1a3
100
AcDbEntity
100
AcDbMText
  8
heho_waldgarten
420
     0
 10
1620468.52334198052994907
 20
6898303.67227135412395
  1
\fNoto Sans|i0|b0;\H0.00264583;Braeburn
 50
0.0
 41
0.01553436249380065
 71
     7
  7
STANDARD
  0
MTEXT
  5
1a4
100
AcDbEntity
100
AcDbMText
  8
heho_waldgarten
420
     0
 10
1620431.59282079013064504
 20
6898383.1197897382080555
  1
\fNoto Sans|i0|b0;\H0.00264583;Sunburst
 50
0.0
 41
0.01489770829323505
 71
     7
  7
STANDARD
  0
MTEXT
  5
1a5
100
AcDbEntity
100
AcDbMText
  8
heho_waldgarten
420
     0
 10
1620385.44984457222744823
 20
6898346.69784334488213062
  1
\fNoto Sans|i0|b0;\H0.00264583;Aprimira
 50
0.0
 41
0.01427924421268561
 71
     7
  7
STANDARD
  0
MTEXT
  5
1a6
100
AcDbEntity
100
AcDbMText
  8
heho_waldgarten
420
     0
 10
1620393.71807374735362828
 20
6898343.47363084182143211
  1
\fNoto Sans|i0|b0;\H0.00264583;Goldrich
 50
0.0
 41
0.01386996651232201
 71
     7
  7
STANDARD
  0
MTEXT
  5
1a7
100
AcDbEntity
100
AcDbMText
  8
heho_waldgarten
420
     0
 10
1620379.74476644187234342
 20
6898339.25683396402746439
  1
\fNoto Sans|i0|b0;\H0.00264583;Ontario
 50
0.0
 41
0.01254663528114637
 71
     7
  7
STANDARD
  0
MTEXT
  5
1a8
100
AcDbEntity
100
AcDbMText
  8
heho_waldgarten
420
     0
 10
1620450.31431439961306751
 20
6898383.95916386879980564
  1
\fNoto Sans|i0|b0;\H0.00264583;Regina
 50
0.0
 41
0.01129606453003537
 71
     7
  7
STANDARD
  0
MTEXT
  5
1a9
100
AcDbEntity
100
AcDbMText
  8
heho_waldgarten
420
     0
 10
1620455.99828044581227005
 20
6898228.80023684818297625
  1
\fNoto Sans|i0|b0;\H0.00264583;Pinova
 50
0.0
 41
0.01100502260977681
 71
     7
  7
STANDARD
  0
MTEXT
  5
1aa
100
AcDbEntity
100
AcDbMText
  8
heho_waldgarten
420
     0
 10
1620339.89190181810408831
 20
6898339.58756313100457191
  1
\fNoto Sans|i0|b0;\H0.00264583;Oulins
 50
0.0
 41
0.01050479430933241
 71
     7
  7
STANDARD
  0
MTEXT
  5
1ab
100
AcDbEntity
100
AcDbMText
  8
heho_waldgarten
420
     0
 10
1620485.38247242639772594
 20
6898307.48943296540528536
  1
\fNoto Sans|i0|b0;\H0.00264583;Burlat
 50
0.0
 41
0.00998182835886781
 71
     7
  7
STANDARD
  0
MTEXT
  5
1ac
100
AcDbEntity
100
AcDbMText
  8
heho_waldgarten
420
     0
 10
1620480.13387521239928901
 20
6898325.14354082848876715
  1
\fNoto Sans|i0|b0;\H0.00238125;Topaz
 50
0.0
 41
0.00979537962870217
 71
     7
  7
STANDARD
  0
MTEXT
  5
1ad
100
AcDbEntity
100
AcDbMText
  8
heho_waldgarten
420
     0
 10
1620382.88669352792203426
 20
6898329.33495895285159349
  1
\fNoto Sans|i0|b0;\H0.00264583;Elstar
 50
0.0
 41
0.00916782048814465
 71
     7
  7
STANDARD
  0
ENDSEC
  0
SECTION
  2
OBJECTS
  0
DICTIONARY
  5
C
330
0
100
AcDbDictionary
281
     1
  3
ACAD_GROUP
350
D
  3
ACAD_LAYOUT
350
1A
  3
ACAD_MLEADERSTYLE
350
43
  3
ACAD_MLINESTYLE
350
17
  3
ACAD_PLOTSETTINGS
350
19
  3
ACAD_PLOTSTYLENAME
350
E
  3
ACAD_TABLESTYLE
350
42
  3
ACAD_VISUALSTYLE
350
2A
  0
DICTIONARY
  5
D
102
{ACAD_REACTORS
330
C
102
}
330
C
100
AcDbDictionary
281
     1
  0
DICTIONARY
  5
1A
102
{ACAD_REACTORS
330
C
102
}
330
C
100
AcDbDictionary
281
     1
  3
Layout1
350
1E
  3
Layout2
350
26
  3
Model
350
22
  0
DICTIONARY
  5
43
102
{ACAD_REACTORS
330
C
102
}
330
C
100
AcDbDictionary
281
     1
  0
DICTIONARY
  5
17
102
{ACAD_REACTORS
330
C
102
}
330
C
100
AcDbDictionary
281
     1
  3
Standard
350
18
  0
DICTIONARY
  5
19
102
{ACAD_REACTORS
330
C
102
}
330
C
100
AcDbDictionary
281
     1
  0
ACDBDICTIONARYWDFLT
  5
E
102
{ACAD_REACTORS
330
C
102
}
330
C
100
AcDbDictionary
281
     1
  3
Normal
350
F
100
AcDbDictionaryWithDefault
340
F
  0
DICTIONARY
  5
42
102
{ACAD_REACTORS
330
C
102
}
330
C
100
AcDbDictionary
281
     1
  0
DICTIONARY
  5
2A
102
{ACAD_REACTORS
330
C
102
}
330
C
100
AcDbDictionary
281
     1
  3
2dWireframe
350
2F
  3
3D Hidden
350
31
  3
3dWireframe
350
30
  3
Basic
350
32
  3
Brighten
350
36
  3
ColorChange
350
3A
  3
Conceptual
350
34
  3
Dim
350
35
  3
Facepattern
350
39
  3
Flat
350
2B
  3
FlatWithEdges
350
2C
  3
Gouraud
350
2D
  3
GouraudWithEdges
350
2E
  3
Linepattern
350
38
  3
Realistic
350
33
  3
Thicken
350
37
  0
LAYOUT
  5
1E
102
{ACAD_REACTORS
330
1A
102
}
330
1A
100
AcDbPlotSettings
  1

  2
none_device
  4

  6

 40
0.0
 41
0.0
 42
0.0
 43
0.0
 44
0.0
 45
0.0
 46
0.0
 47
0.0
 48
0.0
 49
0.0
140
0.0
141
0.0
142
1.0
143
1.0
 70
   688
 72
     0
 73
     0
 74
     5
  7

 75
    16
 76
     0
 77
     2
 78
   300
147
1.0
148
0.0
149
0.0
100
AcDbLayout
  1
Layout1
 70
     1
 71
     1
 10
0.0
 20
0.0
 11
12.0
 21
9.0
 12
0.0
 22
0.0
 32
0.0
 14
1.000000000000000E+20
 24
1.000000000000000E+20
 34
1.000000000000000E+20
 15
-1.000000000000000E+20
 25
-1.000000000000000E+20
 35
-1.000000000000000E+20
146
0.0
 13
0.0
 23
0.0
 33
0.0
 16
1.0
 26
0.0
 36
0.0
 17
0.0
 27
1.0
 37
0.0
 76
     0
330
1B
  0
LAYOUT
  5
26
102
{ACAD_REACTORS
330
1A
102
}
330
1A
100
AcDbPlotSettings
  1

  2
none_device
  4

  6

 40
0.0
 41
0.0
 42
0.0
 43
0.0
 44
0.0
 45
0.0
 46
0.0
 47
0.0
 48
0.0
 49
0.0
140
0.0
141
0.0
142
1.0
143
1.0
 70
   688
 72
     0
 73
     0
 74
     5
  7

 75
    16
 76
     0
 77
     2
 78
   300
147
1.0
148
0.0
149
0.0
100
AcDbLayout
  1
Layout2
 70
     1
 71
     2
 10
0.0
 20
0.0
 11
0.0
 21
0.0
 12
0.0
 22
0.0
 32
0.0
 14
0.0
 24
0.0
 34
0.0
 15
0.0
 25
0.0
 35
0.0
146
0.0
 13
0.0
 23
0.0
 33
0.0
 16
1.0
 26
0.0
 36
0.0
 17
0.0
 27
1.0
 37
0.0
 76
     0
330
23
  0
LAYOUT
  5
22
102
{ACAD_REACTORS
330
1A
102
}
330
1A
100
AcDbPlotSettings
  1

  2
none_device
  4

  6

 40
0.0
 41
0.0
 42
0.0
 43
0.0
 44
0.0
 45
0.0
 46
0.0
 47
0.0
 48
0.0
 49
0.0
140
0.0
141
0.0
142
1.0
143
1.0
 70
  1712
 72
     0
 73
     0
 74
     0
  7

 75
     0
 76
     0
 77
     2
 78
   300
147
1.0
148
0.0
149
0.0
100
AcDbLayout
  1
Model
 70
     1
 71
     0
 10
0.0
 20
0.0
 11
12.0
 21
9.0
 12
0.0
 22
0.0
 32
0.0
 14
30.0
 24
49.75
 34
0.0
 15
130.5
 25
163.1318914119703
 35
0.0
146
0.0
 13
0.0
 23
0.0
 33
0.0
 16
1.0
 26
0.0
 36
0.0
 17
0.0
 27
1.0
 37
0.0
 76
     0
330
1F
331
29
  0
MLINESTYLE
  5
18
102
{ACAD_REACTORS
330
17
102
}
330
17
100
AcDbMlineStyle
  2
Standard
 70
     0
  3

 62
   256
 51
90.0
 52
90.0
 71
     2
 49
0.5
 62
   256
  6
BYLAYER
 49
-0.5
 62
   256
  6
BYLAYER
  0
ACDBPLACEHOLDER
  5
F
102
{ACAD_REACTORS
330
E
102
}
330
E
  0
VISUALSTYLE
  5
2F
102
{ACAD_REACTORS
330
2A
102
}
330
2A
100
AcDbVisualStyle
  2
2dWireframe
 70
     4
 71
     0
 72
     2
 73
     0
 90
        0
 40
-0.6
 41
-30.0
 62
     5
 63
     7
421
 16777215
 74
     1
 91
        4
 64
     7
 65
   257
 75
     1
175
     1
 42
1.0
 92
        0
 66
   257
 43
1.0
 76
     1
 77
     6
 78
     2
 67
     7
 79
     5
170
     0
171
     0
290
     0
174
     0
 93
        1
 44
0.0
173
     0
291
     0
 45
0.0
1001
ACAD
1000
AcDbSavedByObjectVersion
1070
     0
  0
VISUALSTYLE
  5
31
102
{ACAD_REACTORS
330
2A
102
}
330
2A
100
AcDbVisualStyle
  2
3D Hidden
 70
     6
 71
     1
 72
     2
 73
     2
 90
        0
 40
-0.6
 41
-30.0
 62
     5
 63
     7
421
 16777215
 74
     2
 91
        2
 64
     7
 65
   257
 75
     2
175
     1
 42
40.0
 92
        0
 66
   257
 43
1.0
 76
     1
 77
     6
 78
     2
 67
     7
 79
     3
170
     0
171
     0
290
     0
174
     0
 93
        1
 44
0.0
173
     0
291
     0
 45
0.0
1001
ACAD
1000
AcDbSavedByObjectVersion
1070
     0
  0
VISUALSTYLE
  5
30
102
{ACAD_REACTORS
330
2A
102
}
330
2A
100
AcDbVisualStyle
  2
3dWireframe
 70
     5
 71
     0
 72
     2
 73
     0
 90
        0
 40
-0.6
 41
-30.0
 62
     5
 63
     7
421
 16777215
 74
     1
 91
        4
 64
     7
 65
   257
 75
     1
175
     1
 42
1.0
 92
        0
 66
   257
 43
1.0
 76
     1
 77
     6
 78
     2
 67
     7
 79
     5
170
     0
171
     0
290
     0
174
     0
 93
        1
 44
0.0
173
     0
291
     0
 45
0.0
1001
ACAD
1000
AcDbSavedByObjectVersion
1070
     0
  0
VISUALSTYLE
  5
32
102
{ACAD_REACTORS
330
2A
102
}
330
2A
100
AcDbVisualStyle
  2
Basic
 70
     7
 71
     1
 72
     0
 73
     1
 90
        0
 40
-0.6
 41
-30.0
 62
     5
 63
     7
421
 16777215
 74
     0
 91
        4
 64
     7
 65
   257
 75
     1
175
     1
 42
1.0
 92
        8
 66
     7
 43
1.0
 76
     1
 77
     6
 78
     2
 67
     7
 79
     5
170
     0
171
     0
290
     0
174
     0
 93
        1
 44
0.0
173
     0
291
     1
 45
0.0
1001
ACAD
1000
AcDbSavedByObjectVersion
1070
     0
  0
VISUALSTYLE
  5
36
102
{ACAD_REACTORS
330
2A
102
}
330
2A
100
AcDbVisualStyle
  2
Brighten
 70
    12
 71
     2
 72
     2
 73
     0
 90
        0
 40
-0.6
 41
-30.0
 62
     5
 63
     7
421
 16777215
 74
     1
 91
        4
 64
     7
 65
   257
 75
     1
175
     1
 42
1.0
 92
        8
 66
     7
 43
1.0
 76
     1
 77
     6
 78
     2
 67
     7
 79
     5
170
     0
171
     0
290
     0
174
     0
 93
        1
 44
50.0
173
     0
291
     1
 45
0.0
1001
ACAD
1000
AcDbSavedByObjectVersion
1070
     0
  0
VISUALSTYLE
  5
3A
102
{ACAD_REACTORS
330
2A
102
}
330
2A
100
AcDbVisualStyle
  2
ColorChange
 70
    16
 71
     2
 72
     2
 73
     3
 90
        0
 40
-0.6
 41
-30.0
 62
     5
 63
     8
421
  8421504
 74
     1
 91
        4
 64
     7
 65
   257
 75
     1
175
     1
 42
1.0
 92
        8
 66
     8
424
  8421504
 43
1.0
 76
     1
 77
     6
 78
     2
 67
     7
 79
     5
170
     0
171
     0
290
     0
174
     0
 93
        1
 44
0.0
173
     0
291
     1
 45
0.0
1001
ACAD
1000
AcDbSavedByObjectVersion
1070
     0
  0
VISUALSTYLE
  5
34
102
{ACAD_REACTORS
330
2A
102
}
330
2A
100
AcDbVisualStyle
  2
Conceptual
 70
     9
 71
     3
 72
     2
 73
     0
 90
        0
 40
-0.6
 41
-30.0
 62
     5
 63
     7
421
 16777215
 74
     2
 91
        2
 64
     7
 65
   257
 75
     1
175
     1
 42
40.0
 92
        8
 66
     7
 43
1.0
 76
     1
 77
     6
 78
     2
 67
     7
 79
     3
170
     0
171
     0
290
     0
174
     0
 93
        1
 44
0.0
173
     0
291
     0
 45
0.0
1001
ACAD
1000
AcDbSavedByObjectVersion
1070
     0
  0
VISUALSTYLE
  5
35
102
{ACAD_REACTORS
330
2A
102
}
330
2A
100
AcDbVisualStyle
  2
Dim
 70
    11
 71
     2
 72
     2
 73
     0
 90
        0
 40
-0.6
 41
-30.0
 62
     5
 63
     7
421
 16777215
 74
     1
 91
        4
 64
     7
 65
   257
 75
     1
175
     1
 42
1.0
 92
        8
 66
     7
 43
1.0
 76
     1
 77
     6
 78
     2
 67
     7
 79
     5
170
     0
171
     0
290
     0
174
     0
 93
        1
 44
-50.0
173
     0
291
     1
 45
0.0
1001
ACAD
1000
AcDbSavedByObjectVersion
1070
     0
  0
VISUALSTYLE
  5
39
102
{ACAD_REACTORS
330
2A
102
}
330
2A
100
AcDbVisualStyle
  2
Facepattern
 70
    15
 71
     2
 72
     2
 73
     0
 90
        0
 40
-0.6
 41
-30.0
 62
     5
 63
     7
421
 16777215
 74
     1
 91
        4
 64
     7
 65
   257
 75
     1
175
     1
 42
1.0
 92
        8
 66
     7
 43
1.0
 76
     1
 77
     6
 78
     2
 67
     7
 79
     5
170
     0
171
     0
290
     0
174
     0
 93
        1
 44
0.0
173
     0
291
     1
 45
0.0
1001
ACAD
1000
AcDbSavedByObjectVersion
1070
     0
  0
VISUALSTYLE
  5
2B
102
{ACAD_REACTORS
330
2A
102
}
330
2A
100
AcDbVisualStyle
  2
Flat
 70
     0
 71
     2
 72
     1
 73
     1
 90
        2
 40
-0.6
 41
30.0
 62
     5
 63
     7
421
 16777215
 74
     0
 91
        4
 64
     7
 65
   257
 75
     1
175
     1
 42
1.0
 92
        8
 66
     7
 43
1.0
 76
     1
 77
     6
 78
     2
 67
     7
 79
     5
170
     0
171
     0
290
     0
174
     0
 93
       13
 44
0.0
173
     0
291
     1
 45
0.0
1001
ACAD
1000
AcDbSavedByObjectVersion
1070
     0
  0
VISUALSTYLE
  5
2C
102
{ACAD_REACTORS
330
2A
102
}
330
2A
100
AcDbVisualStyle
  2
FlatWithEdges
 70
     1
 71
     2
 72
     1
 73
     1
 90
        2
 40
-0.6
 41
30.0
 62
     5
 63
     7
421
 16777215
 74
     1
 91
        4
 64
     7
 65
   257
 75
     1
175
     1
 42
1.0
 92
        0
 66
   257
 43
1.0
 76
     1
 77
     6
 78
     2
 67
     7
 79
     5
170
     0
171
     0
290
     0
174
     0
 93
       13
 44
0.0
173
     0
291
     1
 45
0.0
1001
ACAD
1000
AcDbSavedByObjectVersion
1070
     0
  0
VISUALSTYLE
  5
2D
102
{ACAD_REACTORS
330
2A
102
}
330
2A
100
AcDbVisualStyle
  2
Gouraud
 70
     2
 71
     2
 72
     2
 73
     1
 90
        2
 40
-0.6
 41
30.0
 62
     5
 63
     7
421
 16777215
 74
     0
 91
        4
 64
     7
 65
   257
 75
     1
175
     1
 42
1.0
 92
        0
 66
     7
 43
1.0
 76
     1
 77
     6
 78
     2
 67
     7
 79
     5
170
     0
171
     0
290
     0
174
     0
 93
       13
 44
0.0
173
     0
291
     1
 45
0.0
1001
ACAD
1000
AcDbSavedByObjectVersion
1070
     0
  0
VISUALSTYLE
  5
2E
102
{ACAD_REACTORS
330
2A
102
}
330
2A
100
AcDbVisualStyle
  2
GouraudWithEdges
 70
     3
 71
     2
 72
     2
 73
     1
 90
        2
 40
-0.6
 41
30.0
 62
     5
 63
     7
421
 16777215
 74
     1
 91
        4
 64
     7
 65
   257
 75
     1
175
     1
 42
1.0
 92
        0
 66
   257
 43
1.0
 76
     1
 77
     6
 78
     2
 67
     7
 79
     5
170
     0
171
     0
290
     0
174
     0
 93
       13
 44
0.0
173
     0
291
     1
 45
0.0
1001
ACAD
1000
AcDbSavedByObjectVersion
1070
     0
  0
VISUALSTYLE
  5
38
102
{ACAD_REACTORS
330
2A
102
}
330
2A
100
AcDbVisualStyle
  2
Linepattern
 70
    14
 71
     2
 72
     2
 73
     0
 90
        0
 40
-0.6
 41
-30.0
 62
     5
 63
     7
421
 16777215
 74
     1
 91
        4
 64
     7
 65
   257
 75
     7
175
     7
 42
1.0
 92
        8
 66
     7
 43
1.0
 76
     1
 77
     6
 78
     2
 67
     7
 79
     5
170
     0
171
     0
290
     0
174
     0
 93
        1
 44
0.0
173
     0
291
     1
 45
0.0
1001
ACAD
1000
AcDbSavedByObjectVersion
1070
     0
  0
VISUALSTYLE
  5
33
102
{ACAD_REACTORS
330
2A
102
}
330
2A
100
AcDbVisualStyle
  2
Realistic
 70
     8
 71
     2
 72
     2
 73
     0
 90
        0
 40
-0.6
 41
-30.0
 62
     5
 63
     7
421
 16777215
 74
     1
 91
        0
 64
     7
 65
   257
 75
     1
175
     1
 42
1.0
 92
        8
 66
     8
424
  7895160
 43
1.0
 76
     1
 77
     6
 78
     2
 67
     7
 79
     5
170
     0
171
     0
290
     0
174
     0
 93
       13
 44
0.0
173
     0
291
     0
 45
0.0
1001
ACAD
1000
AcDbSavedByObjectVersion
1070
     0
  0
VISUALSTYLE
  5
37
102
{ACAD_REACTORS
330
2A
102
}
330
2A
100
AcDbVisualStyle
  2
Thicken
 70
    13
 71
     2
 72
     2
 73
     0
 90
        0
 40
-0.6
 41
-30.0
 62
     5
 63
     7
421
 16777215
 74
     1
 91
        4
 64
     7
 65
   257
 75
     1
175
     1
 42
1.0
 92
       12
 66
     7
 43
1.0
 76
     1
 77
     6
 78
     2
 67
     7
 79
     5
170
     0
171
     0
290
     0
174
     0
 93
        1
 44
0.0
173
     0
291
     1
 45
0.0
1001
ACAD
1000
AcDbSavedByObjectVersion
1070
     0
  0
ENDSEC
  0
EOF
