999
DXF created from QGIS
  0
SECTION
  2
HEADER
  9
$ACADVER
  1
AC1015
  9
$EXTMIN
 10
1620294.71457388112321496
 20
6898016.68825055286288261
 30
0.0
  9
$EXTMAX
 10
1620559.74951731250621378
 20
6898391.13362756837159395
 30
0.0
  9
$LTSCALE
 40
1.0
  9
$PDMODE
 70
    33
  9
$PDSIZE
 40
     1
  9
$PSLTSCALE
 70
     0
  9
$HANDSEED
  5
9999999
  9
$DWGCODEPAGE
  3
ANSI_1252
  0
ENDSEC
  0
SECTION
  2
TABLES
  0
TABLE
  2
LTYPE
  5
64
100
AcDbSymbolTable
 70
     5
  0
LTYPE
  5
65
100
AcDbSymbolTableRecord
100
AcDbLinetypeTableRecord
  2
ByLayer
 70
    64
  3
Defaultstyle
 72
    65
 73
     0
 40
0.0
  0
LTYPE
  5
66
100
AcDbSymbolTableRecord
100
AcDbLinetypeTableRecord
  2
ByBlock
 70
    64
  3
Defaultstyle
 72
    65
 73
     0
 40
0.0
  0
LTYPE
  5
67
100
AcDbSymbolTableRecord
100
AcDbLinetypeTableRecord
  2
CONTINUOUS
 70
    64
  3
Defaultstyle
 72
    65
 73
     0
 40
0.0
  0
LTYPE
  5
68
100
AcDbSymbolTableRecord
100
AcDbLinetypeTableRecord
  2
DASH
 70
    64
  3

 72
    65
 73
     2
 40
0.0026
 49
0.002
 74
     0
 49
-0.0006
 74
     0
  0
LTYPE
  5
69
100
AcDbSymbolTableRecord
100
AcDbLinetypeTableRecord
  2
DOT
 70
    64
  3

 72
    65
 73
     2
 40
0.0012
 49
0.0006
 74
     0
 49
-0.0006
 74
     0
  0
LTYPE
  5
6a
100
AcDbSymbolTableRecord
100
AcDbLinetypeTableRecord
  2
DASHDOT
 70
    64
  3

 72
    65
 73
     4
 40
0.0038
 49
0.002
 74
     0
 49
-0.0006
 74
     0
 49
0.0006
 74
     0
 49
-0.0006
 74
     0
  0
LTYPE
  5
6b
100
AcDbSymbolTableRecord
100
AcDbLinetypeTableRecord
  2
DASHDOTDOT
 70
    64
  3

 72
    65
 73
     6
 40
0.005
 49
0.002
 74
     0
 49
-0.0006
 74
     0
 49
0.0006
 74
     0
 49
-0.0006
 74
     0
 49
0.0006
 74
     0
 49
-0.0006
 74
     0
  0
ENDTAB
  0
TABLE
  2
BLOCK_RECORD
  5
6c
100
AcDbSymbolTable
 70
     0
  0
BLOCK_RECORD
  5
6d
100
AcDbSymbolTableRecord
100
AcDbBlockTableRecord
  2
*Model_Space
  0
BLOCK_RECORD
  5
6e
100
AcDbSymbolTableRecord
100
AcDbBlockTableRecord
  2
*Paper_Space
  0
BLOCK_RECORD
  5
6f
100
AcDbSymbolTableRecord
100
AcDbBlockTableRecord
  2
*Paper_Space0
  0
BLOCK_RECORD
  5
70
100
AcDbSymbolTableRecord
100
AcDbBlockTableRecord
  2
symbolLayer0
  0
BLOCK_RECORD
  5
71
100
AcDbSymbolTableRecord
100
AcDbBlockTableRecord
  2
symbolLayer1
  0
BLOCK_RECORD
  5
72
100
AcDbSymbolTableRecord
100
AcDbBlockTableRecord
  2
symbolLayer2
  0
BLOCK_RECORD
  5
73
100
AcDbSymbolTableRecord
100
AcDbBlockTableRecord
  2
symbolLayer3
  0
BLOCK_RECORD
  5
74
100
AcDbSymbolTableRecord
100
AcDbBlockTableRecord
  2
symbolLayer4
  0
BLOCK_RECORD
  5
75
100
AcDbSymbolTableRecord
100
AcDbBlockTableRecord
  2
symbolLayer5
  0
BLOCK_RECORD
  5
76
100
AcDbSymbolTableRecord
100
AcDbBlockTableRecord
  2
symbolLayer6
  0
BLOCK_RECORD
  5
77
100
AcDbSymbolTableRecord
100
AcDbBlockTableRecord
  2
symbolLayer7
  0
BLOCK_RECORD
  5
78
100
AcDbSymbolTableRecord
100
AcDbBlockTableRecord
  2
symbolLayer8
  0
BLOCK_RECORD
  5
79
100
AcDbSymbolTableRecord
100
AcDbBlockTableRecord
  2
symbolLayer9
  0
ENDTAB
  0
TABLE
  2
APPID
  5
7a
100
AcDbSymbolTable
 70
     1
  0
APPID
  5
7b
100
AcDbSymbolTableRecord
100
AcDbRegAppTableRecord
  2
ACAD
 70
     0
  0
ENDTAB
  0
TABLE
  2
VIEW
  5
7c
100
AcDbSymbolTable
 70
     0
  0
ENDTAB
  0
TABLE
  2
UCS
  5
7d
100
AcDbSymbolTable
 70
     0
  0
ENDTAB
  0
TABLE
  2
VPORT
  5
7e
100
AcDbSymbolTable
  0
VPORT
  5
7f
100
AcDbSymbolTableRecord
100
AcDbViewportTableRecord
  2
*ACTIVE
 70
     0
 10
0.0
 20
0.0
 11
1.0
 21
1.0
 12
0.0
 22
0.0
 13
0.0
 23
0.0
 14
1.0
 24
1.0
 15
1.0
 25
1.0
 16
0.0
 26
0.0
 36
1.0
 17
1620427.23204559693112969
 27
6898203.910939060151577
 40
374.44537701550871134
 41
0.70780669144275699
 42
50.0
 43
0.0
 44
0.0
 50
0.0
 51
0.0
 71
     0
 72
   100
 73
     1
 74
     1
 75
     0
 76
     0
 77
     0
 78
     0
281
     0
 65
     1
110
0.0
120
0.0
130
0.0
111
1.0
121
0.0
131
0.0
112
0.0
122
1.0
132
0.0
 79
     0
146
0.0
 70
     0
  0
ENDTAB
  0
TABLE
  2
DIMSTYLE
  5
80
100
AcDbSymbolTable
100
AcDbDimStyleTable
 70
     0
  0
ENDTAB
  0
TABLE
  2
LAYER
  5
81
100
AcDbSymbolTable
 70
     5
  0
LAYER
  5
82
100
AcDbSymbolTableRecord
100
AcDbLayerTableRecord
  2
0
 70
    64
 62
     1
  6
CONTINUOUS
390
f
  0
LAYER
  5
83
100
AcDbSymbolTableRecord
100
AcDbLayerTableRecord
  2
heho_grundstück
 70
    64
 62
     1
  6
CONTINUOUS
390
f
  0
LAYER
  5
84
100
AcDbSymbolTableRecord
100
AcDbLayerTableRecord
  2
heho_versigelte_fläche
 70
    64
 62
     1
  6
CONTINUOUS
390
f
  0
LAYER
  5
85
100
AcDbSymbolTableRecord
100
AcDbLayerTableRecord
  2
heho_geländehöhe
 70
    64
 62
     1
  6
CONTINUOUS
390
f
  0
LAYER
  5
86
100
AcDbSymbolTableRecord
100
AcDbLayerTableRecord
  2
heho_gebäude
 70
    64
 62
     1
  6
CONTINUOUS
390
f
  0
ENDTAB
  0
TABLE
  2
STYLE
  5
87
100
AcDbSymbolTable
 70
     1
  0
STYLE
  5
88
100
AcDbSymbolTableRecord
100
AcDbTextStyleTableRecord
  2
STANDARD
 70
    64
 40
0.0
 41
1.0
 50
0.0
 71
     0
 42
5.0
  3
romans.shx
  4

  0
ENDTAB
  0
ENDSEC
  0
SECTION
  2
BLOCKS
  0
BLOCK
  5
89
330
6d
100
AcDbEntity
  8
0
100
AcDbBlockBegin
  2
*Model_Space
 70
     0
 10
0.0
 20
0.0
 30
0.0
  3
*Model_Space
  1

  0
ENDBLK
  5
8a
100
AcDbEntity
  8
0
100
AcDbBlockEnd
  0
BLOCK
  5
8b
330
6e
100
AcDbEntity
  8
0
100
AcDbBlockBegin
  2
*Paper_Space
 70
     0
 10
0.0
 20
0.0
 30
0.0
  3
*Paper_Space
  1

  0
ENDBLK
  5
8c
100
AcDbEntity
  8
0
100
AcDbBlockEnd
  0
BLOCK
  5
8d
330
6f
100
AcDbEntity
  8
0
100
AcDbBlockBegin
  2
*Paper_Space0
 70
     0
 10
0.0
 20
0.0
 30
0.0
  3
*Paper_Space0
  1

  0
ENDBLK
  5
8e
100
AcDbEntity
  8
0
100
AcDbBlockEnd
  0
BLOCK
  5
8f
330
70
100
AcDbEntity
  8
0
100
AcDbBlockBegin
  2
symbolLayer0
 70
     0
 10
0.0
 20
0.0
 30
0.0
  3
symbolLayer0
  1

  0
HATCH
  5
90
330
70
100
AcDbEntity
  8
0
420
536683
100
AcDbHatch
 10
0.0
 20
0.0
 30
0.0
210
0.0
220
0.0
230
1.0
  2
SOLID
 70
     1
 71
     0
 91
     1
 92
     3
 72
     1
 73
     1
 93
     2
 10
-0.0035
 20
0.0
 42
1.0
 10
0.0035
 20
0.0
 42
1.0
 97
     0
 75
     0
 76
     1
 98
     0
  0
LWPOLYLINE
  5
91
330
70
  8
0
100
AcDbEntity
100
AcDbPolyline
  6
CONTINUOUS
420
     0
 90
     2
 70
     1
 43
0.0
 10
-0.0035
 20
0.0
 42
1.0
 10
0.0035
 20
0.0
 42
1.0
  0
ENDBLK
  5
92
100
AcDbEntity
  8
0
100
AcDbBlockEnd
  0
BLOCK
  5
93
330
71
100
AcDbEntity
  8
0
100
AcDbBlockBegin
  2
symbolLayer1
 70
     0
 10
0.0
 20
0.0
 30
0.0
  3
symbolLayer1
  1

  0
HATCH
  5
94
330
71
100
AcDbEntity
  8
0
420
677022
100
AcDbHatch
 10
0.0
 20
0.0
 30
0.0
210
0.0
220
0.0
230
1.0
  2
SOLID
 70
     1
 71
     0
 91
     1
 92
     3
 72
     1
 73
     1
 93
     2
 10
-0.0035
 20
0.0
 42
1.0
 10
0.0035
 20
0.0
 42
1.0
 97
     0
 75
     0
 76
     1
 98
     0
  0
LWPOLYLINE
  5
95
330
71
  8
0
100
AcDbEntity
100
AcDbPolyline
  6
CONTINUOUS
420
     0
 90
     2
 70
     1
 43
0.0
 10
-0.0035
 20
0.0
 42
1.0
 10
0.0035
 20
0.0
 42
1.0
  0
ENDBLK
  5
96
100
AcDbEntity
  8
0
100
AcDbBlockEnd
  0
BLOCK
  5
97
330
72
100
AcDbEntity
  8
0
100
AcDbBlockBegin
  2
symbolLayer2
 70
     0
 10
0.0
 20
0.0
 30
0.0
  3
symbolLayer2
  1

  0
HATCH
  5
98
330
72
100
AcDbEntity
  8
0
420
2192054
100
AcDbHatch
 10
0.0
 20
0.0
 30
0.0
210
0.0
220
0.0
230
1.0
  2
SOLID
 70
     1
 71
     0
 91
     1
 92
     3
 72
     1
 73
     1
 93
     2
 10
-0.0035
 20
0.0
 42
1.0
 10
0.0035
 20
0.0
 42
1.0
 97
     0
 75
     0
 76
     1
 98
     0
  0
LWPOLYLINE
  5
99
330
72
  8
0
100
AcDbEntity
100
AcDbPolyline
  6
CONTINUOUS
420
     0
 90
     2
 70
     1
 43
0.0
 10
-0.0035
 20
0.0
 42
1.0
 10
0.0035
 20
0.0
 42
1.0
  0
ENDBLK
  5
9a
100
AcDbEntity
  8
0
100
AcDbBlockEnd
  0
BLOCK
  5
9b
330
73
100
AcDbEntity
  8
0
100
AcDbBlockBegin
  2
symbolLayer3
 70
     0
 10
0.0
 20
0.0
 30
0.0
  3
symbolLayer3
  1

  0
HATCH
  5
9c
330
73
100
AcDbEntity
  8
0
420
4099780
100
AcDbHatch
 10
0.0
 20
0.0
 30
0.0
210
0.0
220
0.0
230
1.0
  2
SOLID
 70
     1
 71
     0
 91
     1
 92
     3
 72
     1
 73
     1
 93
     2
 10
-0.0035
 20
0.0
 42
1.0
 10
0.0035
 20
0.0
 42
1.0
 97
     0
 75
     0
 76
     1
 98
     0
  0
LWPOLYLINE
  5
9d
330
73
  8
0
100
AcDbEntity
100
AcDbPolyline
  6
CONTINUOUS
420
     0
 90
     2
 70
     1
 43
0.0
 10
-0.0035
 20
0.0
 42
1.0
 10
0.0035
 20
0.0
 42
1.0
  0
ENDBLK
  5
9e
100
AcDbEntity
  8
0
100
AcDbBlockEnd
  0
BLOCK
  5
9f
330
74
100
AcDbEntity
  8
0
100
AcDbBlockBegin
  2
symbolLayer4
 70
     0
 10
0.0
 20
0.0
 30
0.0
  3
symbolLayer4
  1

  0
HATCH
  5
a0
330
74
100
AcDbEntity
  8
0
420
6334162
100
AcDbHatch
 10
0.0
 20
0.0
 30
0.0
210
0.0
220
0.0
230
1.0
  2
SOLID
 70
     1
 71
     0
 91
     1
 92
     3
 72
     1
 73
     1
 93
     2
 10
-0.0035
 20
0.0
 42
1.0
 10
0.0035
 20
0.0
 42
1.0
 97
     0
 75
     0
 76
     1
 98
     0
  0
LWPOLYLINE
  5
a1
330
74
  8
0
100
AcDbEntity
100
AcDbPolyline
  6
CONTINUOUS
420
     0
 90
     2
 70
     1
 43
0.0
 10
-0.0035
 20
0.0
 42
1.0
 10
0.0035
 20
0.0
 42
1.0
  0
ENDBLK
  5
a2
100
AcDbEntity
  8
0
100
AcDbBlockEnd
  0
BLOCK
  5
a3
330
75
100
AcDbEntity
  8
0
100
AcDbBlockBegin
  2
symbolLayer5
 70
     0
 10
0.0
 20
0.0
 30
0.0
  3
symbolLayer5
  1

  0
HATCH
  5
a4
330
75
100
AcDbEntity
  8
0
420
9027549
100
AcDbHatch
 10
0.0
 20
0.0
 30
0.0
210
0.0
220
0.0
230
1.0
  2
SOLID
 70
     1
 71
     0
 91
     1
 92
     3
 72
     1
 73
     1
 93
     2
 10
-0.0035
 20
0.0
 42
1.0
 10
0.0035
 20
0.0
 42
1.0
 97
     0
 75
     0
 76
     1
 98
     0
  0
LWPOLYLINE
  5
a5
330
75
  8
0
100
AcDbEntity
100
AcDbPolyline
  6
CONTINUOUS
420
     0
 90
     2
 70
     1
 43
0.0
 10
-0.0035
 20
0.0
 42
1.0
 10
0.0035
 20
0.0
 42
1.0
  0
ENDBLK
  5
a6
100
AcDbEntity
  8
0
100
AcDbBlockEnd
  0
BLOCK
  5
a7
330
76
100
AcDbEntity
  8
0
100
AcDbBlockBegin
  2
symbolLayer6
 70
     0
 10
0.0
 20
0.0
 30
0.0
  3
symbolLayer6
  1

  0
HATCH
  5
a8
330
76
100
AcDbEntity
  8
0
420
11588328
100
AcDbHatch
 10
0.0
 20
0.0
 30
0.0
210
0.0
220
0.0
230
1.0
  2
SOLID
 70
     1
 71
     0
 91
     1
 92
     3
 72
     1
 73
     1
 93
     2
 10
-0.0035
 20
0.0
 42
1.0
 10
0.0035
 20
0.0
 42
1.0
 97
     0
 75
     0
 76
     1
 98
     0
  0
LWPOLYLINE
  5
a9
330
76
  8
0
100
AcDbEntity
100
AcDbPolyline
  6
CONTINUOUS
420
     0
 90
     2
 70
     1
 43
0.0
 10
-0.0035
 20
0.0
 42
1.0
 10
0.0035
 20
0.0
 42
1.0
  0
ENDBLK
  5
aa
100
AcDbEntity
  8
0
100
AcDbBlockEnd
  0
BLOCK
  5
ab
330
77
100
AcDbEntity
  8
0
100
AcDbBlockBegin
  2
symbolLayer7
 70
     0
 10
0.0
 20
0.0
 30
0.0
  3
symbolLayer7
  1

  0
HATCH
  5
ac
330
77
100
AcDbEntity
  8
0
420
13492466
100
AcDbHatch
 10
0.0
 20
0.0
 30
0.0
210
0.0
220
0.0
230
1.0
  2
SOLID
 70
     1
 71
     0
 91
     1
 92
     3
 72
     1
 73
     1
 93
     2
 10
-0.0035
 20
0.0
 42
1.0
 10
0.0035
 20
0.0
 42
1.0
 97
     0
 75
     0
 76
     1
 98
     0
  0
LWPOLYLINE
  5
ad
330
77
  8
0
100
AcDbEntity
100
AcDbPolyline
  6
CONTINUOUS
420
     0
 90
     2
 70
     1
 43
0.0
 10
-0.0035
 20
0.0
 42
1.0
 10
0.0035
 20
0.0
 42
1.0
  0
ENDBLK
  5
ae
100
AcDbEntity
  8
0
100
AcDbBlockEnd
  0
BLOCK
  5
af
330
78
100
AcDbEntity
  8
0
100
AcDbBlockBegin
  2
symbolLayer8
 70
     0
 10
0.0
 20
0.0
 30
0.0
  3
symbolLayer8
  1

  0
HATCH
  5
b0
330
78
100
AcDbEntity
  8
0
420
14872313
100
AcDbHatch
 10
0.0
 20
0.0
 30
0.0
210
0.0
220
0.0
230
1.0
  2
SOLID
 70
     1
 71
     0
 91
     1
 92
     3
 72
     1
 73
     1
 93
     2
 10
-0.0035
 20
0.0
 42
1.0
 10
0.0035
 20
0.0
 42
1.0
 97
     0
 75
     0
 76
     1
 98
     0
  0
LWPOLYLINE
  5
b1
330
78
  8
0
100
AcDbEntity
100
AcDbPolyline
  6
CONTINUOUS
420
     0
 90
     2
 70
     1
 43
0.0
 10
-0.0035
 20
0.0
 42
1.0
 10
0.0035
 20
0.0
 42
1.0
  0
ENDBLK
  5
b2
100
AcDbEntity
  8
0
100
AcDbBlockEnd
  0
BLOCK
  5
b3
330
79
100
AcDbEntity
  8
0
100
AcDbBlockBegin
  2
symbolLayer9
 70
     0
 10
0.0
 20
0.0
 30
0.0
  3
symbolLayer9
  1

  0
HATCH
  5
b4
330
79
100
AcDbEntity
  8
0
420
16251903
100
AcDbHatch
 10
0.0
 20
0.0
 30
0.0
210
0.0
220
0.0
230
1.0
  2
SOLID
 70
     1
 71
     0
 91
     1
 92
     3
 72
     1
 73
     1
 93
     2
 10
-0.0035
 20
0.0
 42
1.0
 10
0.0035
 20
0.0
 42
1.0
 97
     0
 75
     0
 76
     1
 98
     0
  0
LWPOLYLINE
  5
b5
330
79
  8
0
100
AcDbEntity
100
AcDbPolyline
  6
CONTINUOUS
420
     0
 90
     2
 70
     1
 43
0.0
 10
-0.0035
 20
0.0
 42
1.0
 10
0.0035
 20
0.0
 42
1.0
  0
ENDBLK
  5
b6
100
AcDbEntity
  8
0
100
AcDbBlockEnd
  0
ENDSEC
  0
SECTION
  2
ENTITIES
  0
LWPOLYLINE
  5
b7
  8
heho_grundstück
100
AcDbEntity
100
AcDbPolyline
  6
CONTINUOUS
420
     0
 90
    11
 70
     1
 43
0.00026
 10
1620316.66824866738170385
 20
6898342.81168034672737122
 10
1620454.4752833298407495
 20
6898391.13362756837159395
 10
1620469.74740492017008364
 20
6898383.49756677262485027
 10
1620499.9734789002686739
 20
6898294.09202163107693195
 10
1620478.61637136316858232
 20
6898282.3595323832705617
 10
1620471.29847976798191667
 20
6898269.63276439066976309
 10
1620556.56782531458884478
 20
6898101.63942689821124077
 10
1620412.75534700602293015
 20
6898016.68825055286288261
 10
1620298.53260427876375616
 20
6898188.18144924473017454
 10
1620344.34896904975175858
 20
6898213.31681602820754051
 10
1620311.89571067038923502
 20
6898295.72263877652585506
  0
LWPOLYLINE
  5
b8
  8
heho_versigelte_fläche
100
AcDbEntity
100
AcDbPolyline
  6
CONTINUOUS
420
     0
 90
    41
 70
     1
 43
0.00026
 10
1620361.63390049710869789
 20
6898190.79012539144605398
 10
1620357.38971912441775203
 20
6898199.59521808940917253
 10
1620356.12279931153170764
 20
6898199.2151421457529068
 10
1620351.94196392968297005
 20
6898208.52700276859104633
 10
1620353.65230567683465779
 20
6898209.66723060049116611
 10
1620336.99231013981625438
 20
6898255.78311178181320429
 10
1620345.10059694107621908
 20
6898268.95907783415168524
 10
1620393.24354982352815568
 20
6898287.0760311558842659
 10
1620398.31122907437384129
 20
6898290.37002266850322485
 10
1620397.55107718612998724
 20
6898297.97154154442250729
 10
1620370.69237715704366565
 20
6898317.48210666049271822
 10
1620354.2224195918533951
 20
6898329.13776893727481365
 10
1620346.11441916064359248
 20
6898337.94467226602137089
 10
1620341.28820203151553869
 20
6898351.44465100765228271
 10
1620353.36784227518364787
 20
6898355.69428947102278471
 10
1620359.29009884269908071
 20
6898340.2866632891818881
 10
1620366.6382337564136833
 20
6898327.87084912415593863
 10
1620374.746520557673648
 20
6898320.52271421067416668
 10
1620385.64203094691038132
 20
6898321.53625006135553122
 10
1620400.33830077410675585
 20
6898326.09716138709336519
 10
1620410.72704323823563755
 20
6898329.64611968025565147
 10
1620409.84099077875725925
 20
6898332.4317604498937726
 10
1620413.51426682621240616
 20
6898339.77989536337554455
 10
1620412.5337889373768121
 20
6898342.78427931573241949
 10
1620418.83058158471249044
 20
6898344.84282615967094898
 10
1620436.57062459923326969
 20
6898291.38514133729040623
 10
1620431.56906127091497183
 20
6898289.76724649593234062
 10
1620419.34209796460345387
 20
6898325.84377742372453213
 10
1620392.23001397284679115
 20
6898316.97533873561769724
 10
1620385.37499761418439448
 20
6898313.90624855179339647
 10
1620430.23760835384018719
 20
6898282.26173586770892143
 10
1620448.73463761922903359
 20
6898233.86539902165532112
 10
1620450.25494139455258846
 20
6898228.29095184616744518
 10
1620449.24140554433688521
 20
6898227.27741599641740322
 10
1620454.67521539609879255
 20
6898212.28563020471483469
 10
1620468.93107891478575766
 20
6898217.78075927030295134
 10
1620483.32075709709897637
 20
6898178.78665372263640165
 10
1620457.09630838362500072
 20
6898168.23895272519439459
 10
1620442.40003855619579554
 20
6898208.52700276859104633
 10
1620434.0512194677721709
 20
6898205.42344493325799704
 10
1620430.01366189937107265
 20
6898216.0636474285274744
  0
LWPOLYLINE
  5
b9
  8
heho_versigelte_fläche
100
AcDbEntity
100
AcDbPolyline
  6
CONTINUOUS
420
     0
 90
    16
 70
     1
 43
0.00026
 10
1620365.79356246348470449
 20
6898229.44364130310714245
 10
1620357.9810470282100141
 20
6898226.57363742683082819
 10
1620349.22535497741773725
 20
6898249.78645665943622589
 10
1620355.20027553616091609
 20
6898251.99434430338442326
 10
1620353.98327694647014141
 20
6898255.25527785625308752
 10
1620408.44658757629804313
 20
6898275.67375284153968096
 10
1620411.96175481285899878
 20
6898277.00705754105001688
 10
1620410.58268030849285424
 20
6898281.39054436050355434
 10
1620408.21855258685536683
 20
6898283.55766143836081028
 10
1620405.06638229149393737
 20
6898284.24719869066029787
 10
1620348.32731697289273143
 20
6898263.56108112633228302
 10
1620344.58411474712193012
 20
6898256.46869796141982079
 10
1620343.20504024275578558
 20
6898253.11951702274382114
 10
1620354.08987829438410699
 20
6898225.04550032690167427
 10
1620360.64048218983225524
 20
6898220.95752947498112917
 10
1620365.66425359807908535
 20
6898222.7798779271543026
  0
LWPOLYLINE
  5
ba
  8
heho_versigelte_fläche
100
AcDbEntity
100
AcDbPolyline
  6
CONTINUOUS
420
     0
 90
     4
 70
     1
 43
0.00026
 10
1620385.74053626949898899
 20
6898232.17864549066871405
 10
1620390.84467646735720336
 20
6898227.02791993319988251
 10
1620401.38474589283578098
 20
6898230.82037482038140297
 10
1620399.01777656306512654
 20
6898237.21576385386288166
  0
LWPOLYLINE
  5
bb
  8
heho_gebäude
100
AcDbEntity
100
AcDbPolyline
  6
CONTINUOUS
420
     0
 90
     4
 70
     1
 43
0.00026
 10
1620399.32476492482237518
 20
6898339.01974347606301308
 10
1620406.92628380097448826
 20
6898341.30019913893193007
 10
1620412.69467758247628808
 20
6898323.6693875789642334
 10
1620405.05100341560319066
 20
6898321.16912032850086689
  0
LWPOLYLINE
  5
bc
  8
heho_gebäude
100
AcDbEntity
100
AcDbPolyline
  6
CONTINUOUS
420
     0
 90
     4
 70
     1
 43
0.00026
 10
1620418.83058158471249044
 20
6898344.84282615967094898
 10
1620437.33235930604860187
 20
6898350.67540575284510851
 10
1620454.81585272122174501
 20
6898296.95800569374114275
 10
1620436.57062459923326969
 20
6898291.38514133729040623
  0
LWPOLYLINE
  5
bd
  8
heho_gebäude
100
AcDbEntity
100
AcDbPolyline
  6
CONTINUOUS
420
     0
 90
    14
 70
     1
 43
0.00026
 10
1620410.08159255259670317
 20
6898271.13043198082596064
 10
1620418.31736274436116219
 20
6898274.043556141667068
 10
1620425.16834628558717668
 20
6898255.78548600990325212
 10
1620416.80825833999551833
 20
6898252.61739506945014
 10
1620418.20107872481457889
 20
6898248.81346999388188124
 10
1620397.54949436895549297
 20
6898241.08446772675961256
 10
1620399.01777656306512654
 20
6898237.21576385386288166
 10
1620385.74053626949898899
 20
6898232.17864549066871405
 10
1620384.25079338112846017
 20
6898236.22408541571348906
 10
1620357.9810470282100141
 20
6898226.57363742683082819
 10
1620349.22535497741773725
 20
6898249.78645665943622589
 10
1620355.20027553616091609
 20
6898251.99434430338442326
 10
1620353.98327694647014141
 20
6898255.25527785625308752
 10
1620408.44658757629804313
 20
6898275.67375284153968096
  0
LWPOLYLINE
  5
be
  8
heho_gebäude
100
AcDbEntity
100
AcDbPolyline
  6
CONTINUOUS
420
     0
 90
    20
 70
     1
 43
0.00026
 10
1620427.703768728999421
 20
6898226.77064807154238224
 10
1620431.37783618597313762
 20
6898216.60361657477915287
 10
1620430.01366189937107265
 20
6898216.0636474285274744
 10
1620459.3767640464939177
 20
6898138.33964514546096325
 10
1620447.72110176994465292
 20
6898134.03211778216063976
 10
1620418.27659970032982528
 20
6898211.72556706611067057
 10
1620413.40392201207578182
 20
6898209.92459958046674728
 10
1620443.41357440664432943
 20
6898132.51181400660425425
 10
1620431.757912129862234
 20
6898127.95090268086642027
 10
1620402.34526731353253126
 20
6898205.83726222440600395
 10
1620397.41780285141430795
 20
6898204.01604525651782751
 10
1620416.3014904148876667
 20
6898154.80960271041840315
 10
1620407.17966776341199875
 20
6898151.26222723536193371
 10
1620388.17587057291530073
 20
6898200.60914964415132999
 10
1620383.04484533169306815
 20
6898198.70837421994656324
 10
1620402.36537247523665428
 20
6898149.74192345980554819
 10
1620392.7367818986531347
 20
6898145.94116402138024569
 10
1620373.73406768124550581
 20
6898195.26241127960383892
 10
1620372.60409235279075801
 20
6898194.84476641286164522
 10
1620368.79199743852950633
 20
6898204.78958932217210531
  0
LWPOLYLINE
  5
bf
  8
heho_gebäude
100
AcDbEntity
100
AcDbPolyline
  6
CONTINUOUS
420
     0
 90
     4
 70
     1
 43
0.00026
 10
1620468.93107891478575766
 20
6898217.78075927030295134
 10
1620487.13654926209710538
 20
6898224.66663248743861914
 10
1620501.81857777293771505
 20
6898185.93340212851762772
 10
1620483.32075709709897637
 20
6898178.78665372263640165
  0
LWPOLYLINE
  5
c0
  8
heho_gebäude
100
AcDbEntity
100
AcDbPolyline
  6
CONTINUOUS
420
     0
 90
     4
 70
     1
 43
0.00026
 10
1620467.86512679257430136
 20
6898154.1761428052559495
 10
1620508.65994476131163538
 20
6898169.12579659558832645
 10
1620512.96747212461195886
 20
6898158.99043809343129396
 10
1620471.66588623053394258
 20
6898143.28063241578638554
  0
LWPOLYLINE
  5
c1
  8
heho_gebäude
100
AcDbEntity
100
AcDbPolyline
  6
CONTINUOUS
420
     0
 90
     4
 70
     1
 43
0.00026
 10
1620422.38270551641471684
 20
6898123.89675928093492985
 10
1620408.95335550187155604
 20
6898118.76573403924703598
 10
1620403.88567625125870109
 20
6898131.6249701390042901
 10
1620417.31502626580186188
 20
6898136.69264938961714506
  0
INSERT
  5
c2
100
AcDbEntity
100
AcDbBlockReference
  8
heho_geländehöhe
  2
symbolLayer9
 50
0.0
 10
1620418.31736274459399283
 20
6898274.04355614073574543
  0
INSERT
  5
c3
100
AcDbEntity
100
AcDbBlockReference
  8
heho_geländehöhe
  2
symbolLayer7
 50
0.0
 10
1620425.16834628558717668
 20
6898255.78548600990325212
  0
INSERT
  5
c4
100
AcDbEntity
100
AcDbBlockReference
  8
heho_geländehöhe
  2
symbolLayer4
 50
0.0
 10
1620418.20107872481457889
 20
6898248.81346999388188124
  0
INSERT
  5
c5
100
AcDbEntity
100
AcDbBlockReference
  8
heho_geländehöhe
  2
symbolLayer1
 50
0.0
 10
1620427.703768728999421
 20
6898226.77064807154238224
  0
INSERT
  5
c6
100
AcDbEntity
100
AcDbBlockReference
  8
heho_geländehöhe
  2
symbolLayer0
 50
0.0
 10
1620447.67852916731499135
 20
6898240.91567095369100571
  0
INSERT
  5
c7
100
AcDbEntity
100
AcDbBlockReference
  8
heho_geländehöhe
  2
symbolLayer5
 50
0.0
 10
1620436.57062459923326969
 20
6898291.38514133729040623
  0
INSERT
  5
c8
100
AcDbEntity
100
AcDbBlockReference
  8
heho_geländehöhe
  2
symbolLayer5
 50
0.0
 10
1620418.83058158471249044
 20
6898344.84282615967094898
  0
ENDSEC
  0
SECTION
  2
OBJECTS
  0
DICTIONARY
  5
C
330
0
100
AcDbDictionary
281
     1
  3
ACAD_GROUP
350
D
  3
ACAD_LAYOUT
350
1A
  3
ACAD_MLEADERSTYLE
350
43
  3
ACAD_MLINESTYLE
350
17
  3
ACAD_PLOTSETTINGS
350
19
  3
ACAD_PLOTSTYLENAME
350
E
  3
ACAD_TABLESTYLE
350
42
  3
ACAD_VISUALSTYLE
350
2A
  0
DICTIONARY
  5
D
102
{ACAD_REACTORS
330
C
102
}
330
C
100
AcDbDictionary
281
     1
  0
DICTIONARY
  5
1A
102
{ACAD_REACTORS
330
C
102
}
330
C
100
AcDbDictionary
281
     1
  3
Layout1
350
1E
  3
Layout2
350
26
  3
Model
350
22
  0
DICTIONARY
  5
43
102
{ACAD_REACTORS
330
C
102
}
330
C
100
AcDbDictionary
281
     1
  0
DICTIONARY
  5
17
102
{ACAD_REACTORS
330
C
102
}
330
C
100
AcDbDictionary
281
     1
  3
Standard
350
18
  0
DICTIONARY
  5
19
102
{ACAD_REACTORS
330
C
102
}
330
C
100
AcDbDictionary
281
     1
  0
ACDBDICTIONARYWDFLT
  5
E
102
{ACAD_REACTORS
330
C
102
}
330
C
100
AcDbDictionary
281
     1
  3
Normal
350
F
100
AcDbDictionaryWithDefault
340
F
  0
DICTIONARY
  5
42
102
{ACAD_REACTORS
330
C
102
}
330
C
100
AcDbDictionary
281
     1
  0
DICTIONARY
  5
2A
102
{ACAD_REACTORS
330
C
102
}
330
C
100
AcDbDictionary
281
     1
  3
2dWireframe
350
2F
  3
3D Hidden
350
31
  3
3dWireframe
350
30
  3
Basic
350
32
  3
Brighten
350
36
  3
ColorChange
350
3A
  3
Conceptual
350
34
  3
Dim
350
35
  3
Facepattern
350
39
  3
Flat
350
2B
  3
FlatWithEdges
350
2C
  3
Gouraud
350
2D
  3
GouraudWithEdges
350
2E
  3
Linepattern
350
38
  3
Realistic
350
33
  3
Thicken
350
37
  0
LAYOUT
  5
1E
102
{ACAD_REACTORS
330
1A
102
}
330
1A
100
AcDbPlotSettings
  1

  2
none_device
  4

  6

 40
0.0
 41
0.0
 42
0.0
 43
0.0
 44
0.0
 45
0.0
 46
0.0
 47
0.0
 48
0.0
 49
0.0
140
0.0
141
0.0
142
1.0
143
1.0
 70
   688
 72
     0
 73
     0
 74
     5
  7

 75
    16
 76
     0
 77
     2
 78
   300
147
1.0
148
0.0
149
0.0
100
AcDbLayout
  1
Layout1
 70
     1
 71
     1
 10
0.0
 20
0.0
 11
12.0
 21
9.0
 12
0.0
 22
0.0
 32
0.0
 14
1.000000000000000E+20
 24
1.000000000000000E+20
 34
1.000000000000000E+20
 15
-1.000000000000000E+20
 25
-1.000000000000000E+20
 35
-1.000000000000000E+20
146
0.0
 13
0.0
 23
0.0
 33
0.0
 16
1.0
 26
0.0
 36
0.0
 17
0.0
 27
1.0
 37
0.0
 76
     0
330
1B
  0
LAYOUT
  5
26
102
{ACAD_REACTORS
330
1A
102
}
330
1A
100
AcDbPlotSettings
  1

  2
none_device
  4

  6

 40
0.0
 41
0.0
 42
0.0
 43
0.0
 44
0.0
 45
0.0
 46
0.0
 47
0.0
 48
0.0
 49
0.0
140
0.0
141
0.0
142
1.0
143
1.0
 70
   688
 72
     0
 73
     0
 74
     5
  7

 75
    16
 76
     0
 77
     2
 78
   300
147
1.0
148
0.0
149
0.0
100
AcDbLayout
  1
Layout2
 70
     1
 71
     2
 10
0.0
 20
0.0
 11
0.0
 21
0.0
 12
0.0
 22
0.0
 32
0.0
 14
0.0
 24
0.0
 34
0.0
 15
0.0
 25
0.0
 35
0.0
146
0.0
 13
0.0
 23
0.0
 33
0.0
 16
1.0
 26
0.0
 36
0.0
 17
0.0
 27
1.0
 37
0.0
 76
     0
330
23
  0
LAYOUT
  5
22
102
{ACAD_REACTORS
330
1A
102
}
330
1A
100
AcDbPlotSettings
  1

  2
none_device
  4

  6

 40
0.0
 41
0.0
 42
0.0
 43
0.0
 44
0.0
 45
0.0
 46
0.0
 47
0.0
 48
0.0
 49
0.0
140
0.0
141
0.0
142
1.0
143
1.0
 70
  1712
 72
     0
 73
     0
 74
     0
  7

 75
     0
 76
     0
 77
     2
 78
   300
147
1.0
148
0.0
149
0.0
100
AcDbLayout
  1
Model
 70
     1
 71
     0
 10
0.0
 20
0.0
 11
12.0
 21
9.0
 12
0.0
 22
0.0
 32
0.0
 14
30.0
 24
49.75
 34
0.0
 15
130.5
 25
163.1318914119703
 35
0.0
146
0.0
 13
0.0
 23
0.0
 33
0.0
 16
1.0
 26
0.0
 36
0.0
 17
0.0
 27
1.0
 37
0.0
 76
     0
330
1F
331
29
  0
MLINESTYLE
  5
18
102
{ACAD_REACTORS
330
17
102
}
330
17
100
AcDbMlineStyle
  2
Standard
 70
     0
  3

 62
   256
 51
90.0
 52
90.0
 71
     2
 49
0.5
 62
   256
  6
BYLAYER
 49
-0.5
 62
   256
  6
BYLAYER
  0
ACDBPLACEHOLDER
  5
F
102
{ACAD_REACTORS
330
E
102
}
330
E
  0
VISUALSTYLE
  5
2F
102
{ACAD_REACTORS
330
2A
102
}
330
2A
100
AcDbVisualStyle
  2
2dWireframe
 70
     4
 71
     0
 72
     2
 73
     0
 90
        0
 40
-0.6
 41
-30.0
 62
     5
 63
     7
421
 16777215
 74
     1
 91
        4
 64
     7
 65
   257
 75
     1
175
     1
 42
1.0
 92
        0
 66
   257
 43
1.0
 76
     1
 77
     6
 78
     2
 67
     7
 79
     5
170
     0
171
     0
290
     0
174
     0
 93
        1
 44
0.0
173
     0
291
     0
 45
0.0
1001
ACAD
1000
AcDbSavedByObjectVersion
1070
     0
  0
VISUALSTYLE
  5
31
102
{ACAD_REACTORS
330
2A
102
}
330
2A
100
AcDbVisualStyle
  2
3D Hidden
 70
     6
 71
     1
 72
     2
 73
     2
 90
        0
 40
-0.6
 41
-30.0
 62
     5
 63
     7
421
 16777215
 74
     2
 91
        2
 64
     7
 65
   257
 75
     2
175
     1
 42
40.0
 92
        0
 66
   257
 43
1.0
 76
     1
 77
     6
 78
     2
 67
     7
 79
     3
170
     0
171
     0
290
     0
174
     0
 93
        1
 44
0.0
173
     0
291
     0
 45
0.0
1001
ACAD
1000
AcDbSavedByObjectVersion
1070
     0
  0
VISUALSTYLE
  5
30
102
{ACAD_REACTORS
330
2A
102
}
330
2A
100
AcDbVisualStyle
  2
3dWireframe
 70
     5
 71
     0
 72
     2
 73
     0
 90
        0
 40
-0.6
 41
-30.0
 62
     5
 63
     7
421
 16777215
 74
     1
 91
        4
 64
     7
 65
   257
 75
     1
175
     1
 42
1.0
 92
        0
 66
   257
 43
1.0
 76
     1
 77
     6
 78
     2
 67
     7
 79
     5
170
     0
171
     0
290
     0
174
     0
 93
        1
 44
0.0
173
     0
291
     0
 45
0.0
1001
ACAD
1000
AcDbSavedByObjectVersion
1070
     0
  0
VISUALSTYLE
  5
32
102
{ACAD_REACTORS
330
2A
102
}
330
2A
100
AcDbVisualStyle
  2
Basic
 70
     7
 71
     1
 72
     0
 73
     1
 90
        0
 40
-0.6
 41
-30.0
 62
     5
 63
     7
421
 16777215
 74
     0
 91
        4
 64
     7
 65
   257
 75
     1
175
     1
 42
1.0
 92
        8
 66
     7
 43
1.0
 76
     1
 77
     6
 78
     2
 67
     7
 79
     5
170
     0
171
     0
290
     0
174
     0
 93
        1
 44
0.0
173
     0
291
     1
 45
0.0
1001
ACAD
1000
AcDbSavedByObjectVersion
1070
     0
  0
VISUALSTYLE
  5
36
102
{ACAD_REACTORS
330
2A
102
}
330
2A
100
AcDbVisualStyle
  2
Brighten
 70
    12
 71
     2
 72
     2
 73
     0
 90
        0
 40
-0.6
 41
-30.0
 62
     5
 63
     7
421
 16777215
 74
     1
 91
        4
 64
     7
 65
   257
 75
     1
175
     1
 42
1.0
 92
        8
 66
     7
 43
1.0
 76
     1
 77
     6
 78
     2
 67
     7
 79
     5
170
     0
171
     0
290
     0
174
     0
 93
        1
 44
50.0
173
     0
291
     1
 45
0.0
1001
ACAD
1000
AcDbSavedByObjectVersion
1070
     0
  0
VISUALSTYLE
  5
3A
102
{ACAD_REACTORS
330
2A
102
}
330
2A
100
AcDbVisualStyle
  2
ColorChange
 70
    16
 71
     2
 72
     2
 73
     3
 90
        0
 40
-0.6
 41
-30.0
 62
     5
 63
     8
421
  8421504
 74
     1
 91
        4
 64
     7
 65
   257
 75
     1
175
     1
 42
1.0
 92
        8
 66
     8
424
  8421504
 43
1.0
 76
     1
 77
     6
 78
     2
 67
     7
 79
     5
170
     0
171
     0
290
     0
174
     0
 93
        1
 44
0.0
173
     0
291
     1
 45
0.0
1001
ACAD
1000
AcDbSavedByObjectVersion
1070
     0
  0
VISUALSTYLE
  5
34
102
{ACAD_REACTORS
330
2A
102
}
330
2A
100
AcDbVisualStyle
  2
Conceptual
 70
     9
 71
     3
 72
     2
 73
     0
 90
        0
 40
-0.6
 41
-30.0
 62
     5
 63
     7
421
 16777215
 74
     2
 91
        2
 64
     7
 65
   257
 75
     1
175
     1
 42
40.0
 92
        8
 66
     7
 43
1.0
 76
     1
 77
     6
 78
     2
 67
     7
 79
     3
170
     0
171
     0
290
     0
174
     0
 93
        1
 44
0.0
173
     0
291
     0
 45
0.0
1001
ACAD
1000
AcDbSavedByObjectVersion
1070
     0
  0
VISUALSTYLE
  5
35
102
{ACAD_REACTORS
330
2A
102
}
330
2A
100
AcDbVisualStyle
  2
Dim
 70
    11
 71
     2
 72
     2
 73
     0
 90
        0
 40
-0.6
 41
-30.0
 62
     5
 63
     7
421
 16777215
 74
     1
 91
        4
 64
     7
 65
   257
 75
     1
175
     1
 42
1.0
 92
        8
 66
     7
 43
1.0
 76
     1
 77
     6
 78
     2
 67
     7
 79
     5
170
     0
171
     0
290
     0
174
     0
 93
        1
 44
-50.0
173
     0
291
     1
 45
0.0
1001
ACAD
1000
AcDbSavedByObjectVersion
1070
     0
  0
VISUALSTYLE
  5
39
102
{ACAD_REACTORS
330
2A
102
}
330
2A
100
AcDbVisualStyle
  2
Facepattern
 70
    15
 71
     2
 72
     2
 73
     0
 90
        0
 40
-0.6
 41
-30.0
 62
     5
 63
     7
421
 16777215
 74
     1
 91
        4
 64
     7
 65
   257
 75
     1
175
     1
 42
1.0
 92
        8
 66
     7
 43
1.0
 76
     1
 77
     6
 78
     2
 67
     7
 79
     5
170
     0
171
     0
290
     0
174
     0
 93
        1
 44
0.0
173
     0
291
     1
 45
0.0
1001
ACAD
1000
AcDbSavedByObjectVersion
1070
     0
  0
VISUALSTYLE
  5
2B
102
{ACAD_REACTORS
330
2A
102
}
330
2A
100
AcDbVisualStyle
  2
Flat
 70
     0
 71
     2
 72
     1
 73
     1
 90
        2
 40
-0.6
 41
30.0
 62
     5
 63
     7
421
 16777215
 74
     0
 91
        4
 64
     7
 65
   257
 75
     1
175
     1
 42
1.0
 92
        8
 66
     7
 43
1.0
 76
     1
 77
     6
 78
     2
 67
     7
 79
     5
170
     0
171
     0
290
     0
174
     0
 93
       13
 44
0.0
173
     0
291
     1
 45
0.0
1001
ACAD
1000
AcDbSavedByObjectVersion
1070
     0
  0
VISUALSTYLE
  5
2C
102
{ACAD_REACTORS
330
2A
102
}
330
2A
100
AcDbVisualStyle
  2
FlatWithEdges
 70
     1
 71
     2
 72
     1
 73
     1
 90
        2
 40
-0.6
 41
30.0
 62
     5
 63
     7
421
 16777215
 74
     1
 91
        4
 64
     7
 65
   257
 75
     1
175
     1
 42
1.0
 92
        0
 66
   257
 43
1.0
 76
     1
 77
     6
 78
     2
 67
     7
 79
     5
170
     0
171
     0
290
     0
174
     0
 93
       13
 44
0.0
173
     0
291
     1
 45
0.0
1001
ACAD
1000
AcDbSavedByObjectVersion
1070
     0
  0
VISUALSTYLE
  5
2D
102
{ACAD_REACTORS
330
2A
102
}
330
2A
100
AcDbVisualStyle
  2
Gouraud
 70
     2
 71
     2
 72
     2
 73
     1
 90
        2
 40
-0.6
 41
30.0
 62
     5
 63
     7
421
 16777215
 74
     0
 91
        4
 64
     7
 65
   257
 75
     1
175
     1
 42
1.0
 92
        0
 66
     7
 43
1.0
 76
     1
 77
     6
 78
     2
 67
     7
 79
     5
170
     0
171
     0
290
     0
174
     0
 93
       13
 44
0.0
173
     0
291
     1
 45
0.0
1001
ACAD
1000
AcDbSavedByObjectVersion
1070
     0
  0
VISUALSTYLE
  5
2E
102
{ACAD_REACTORS
330
2A
102
}
330
2A
100
AcDbVisualStyle
  2
GouraudWithEdges
 70
     3
 71
     2
 72
     2
 73
     1
 90
        2
 40
-0.6
 41
30.0
 62
     5
 63
     7
421
 16777215
 74
     1
 91
        4
 64
     7
 65
   257
 75
     1
175
     1
 42
1.0
 92
        0
 66
   257
 43
1.0
 76
     1
 77
     6
 78
     2
 67
     7
 79
     5
170
     0
171
     0
290
     0
174
     0
 93
       13
 44
0.0
173
     0
291
     1
 45
0.0
1001
ACAD
1000
AcDbSavedByObjectVersion
1070
     0
  0
VISUALSTYLE
  5
38
102
{ACAD_REACTORS
330
2A
102
}
330
2A
100
AcDbVisualStyle
  2
Linepattern
 70
    14
 71
     2
 72
     2
 73
     0
 90
        0
 40
-0.6
 41
-30.0
 62
     5
 63
     7
421
 16777215
 74
     1
 91
        4
 64
     7
 65
   257
 75
     7
175
     7
 42
1.0
 92
        8
 66
     7
 43
1.0
 76
     1
 77
     6
 78
     2
 67
     7
 79
     5
170
     0
171
     0
290
     0
174
     0
 93
        1
 44
0.0
173
     0
291
     1
 45
0.0
1001
ACAD
1000
AcDbSavedByObjectVersion
1070
     0
  0
VISUALSTYLE
  5
33
102
{ACAD_REACTORS
330
2A
102
}
330
2A
100
AcDbVisualStyle
  2
Realistic
 70
     8
 71
     2
 72
     2
 73
     0
 90
        0
 40
-0.6
 41
-30.0
 62
     5
 63
     7
421
 16777215
 74
     1
 91
        0
 64
     7
 65
   257
 75
     1
175
     1
 42
1.0
 92
        8
 66
     8
424
  7895160
 43
1.0
 76
     1
 77
     6
 78
     2
 67
     7
 79
     5
170
     0
171
     0
290
     0
174
     0
 93
       13
 44
0.0
173
     0
291
     0
 45
0.0
1001
ACAD
1000
AcDbSavedByObjectVersion
1070
     0
  0
VISUALSTYLE
  5
37
102
{ACAD_REACTORS
330
2A
102
}
330
2A
100
AcDbVisualStyle
  2
Thicken
 70
    13
 71
     2
 72
     2
 73
     0
 90
        0
 40
-0.6
 41
-30.0
 62
     5
 63
     7
421
 16777215
 74
     1
 91
        4
 64
     7
 65
   257
 75
     1
175
     1
 42
1.0
 92
       12
 66
     7
 43
1.0
 76
     1
 77
     6
 78
     2
 67
     7
 79
     5
170
     0
171
     0
290
     0
174
     0
 93
        1
 44
0.0
173
     0
291
     1
 45
0.0
1001
ACAD
1000
AcDbSavedByObjectVersion
1070
     0
  0
ENDSEC
  0
EOF
